<?xml version="1.0" encoding="UTF-8"?>
<!-- Generator: visioncortex VTracer 0.6.4 -->
<svg version="1.1" xmlns="http://www.w3.org/2000/svg" width="512" height="512">
<path d="M0 0 C6.22 3.34 11.47 8.52 16.68 13.22 C18.26 14.65 19.86 16.06 21.46 17.46 C28.22 23.44 28.22 23.44 29.38 25.75 C29.03 27.7 29.03 27.7 28.69 29.69 C28.6 32.4 28.85 34.08 30.55 36.25 C33.9 39.71 37.61 42.75 41.38 45.75 C42.04 45.42 42.69 45.09 43.38 44.75 C47.74 43.96 50.05 43.92 53.86 46.3 C57.96 49.62 61.79 53.03 65.28 56.99 C74.76 67.34 83.5 69.15 97.12 70.38 C99.85 70.67 102.57 70.98 105.29 71.3 C107.02 71.5 108.76 71.69 110.49 71.88 C127.57 73.81 136.57 81.92 147.49 94.58 C149.59 97 151.73 99.38 153.88 101.75 C157.75 106.05 161.6 110.36 165.38 114.75 C166.11 115.58 166.84 116.41 167.6 117.27 C178.38 129.85 183.17 142.46 182.13 159.04 C181.73 163.81 181.2 168.56 180.61 173.32 C180.25 176.27 179.92 179.23 179.6 182.19 C179.38 184.09 179.16 186 178.93 187.91 C178.83 188.78 178.74 189.65 178.64 190.55 C177.76 197.39 175.98 203.28 170.88 208.12 C168.37 209.75 168.37 209.75 166.33 210.5 C163.5 212.31 163.37 214.17 162.62 217.38 C162.38 218.38 162.14 219.38 161.89 220.41 C161.64 221.57 161.64 221.57 161.38 222.75 C162.66 223.48 162.66 223.48 163.97 224.22 C174.19 230.14 181.52 236.17 185.38 247.75 C185.87 250.94 185.85 254.03 185.75 257.25 C185.74 258.16 185.72 259.08 185.71 260.02 C185.51 269.02 185.01 278.01 184.5 287 C184.46 287.71 184.42 288.42 184.38 289.15 C183.16 310.79 183.16 310.79 178.69 318 C178.23 318.77 177.77 319.54 177.3 320.33 C172.72 326.08 167.13 329.74 160.54 332.84 C159.83 333.18 159.11 333.53 158.37 333.89 C156.87 334.61 155.36 335.33 153.86 336.04 C151.55 337.13 149.24 338.24 146.94 339.36 C145.47 340.06 144.01 340.76 142.54 341.46 C141.85 341.79 141.16 342.12 140.45 342.46 C135.61 344.75 135.61 344.75 133.38 344.75 C133.42 349.64 133.49 354.54 133.58 359.43 C133.61 361.09 133.63 362.76 133.65 364.42 C133.67 366.82 133.71 369.21 133.77 371.61 C133.77 372.72 133.77 372.72 133.77 373.85 C133.91 378.79 134.98 381.2 138.38 384.75 C139.57 387.15 139.53 388.69 139.57 391.36 C139.59 392.8 139.59 392.8 139.62 394.27 C139.66 398.66 139.7 403.06 139.73 407.45 C139.74 409.77 139.77 412.08 139.81 414.4 C139.86 417.74 139.88 421.08 139.9 424.42 C139.92 425.45 139.94 426.48 139.97 427.54 C139.95 434.06 139 438.04 134.38 442.75 C132.4 444.58 132.4 444.58 130.47 445.93 C129.74 446.46 129 446.99 128.25 447.53 C127.46 448.08 126.68 448.62 125.88 449.19 C124.17 450.41 122.47 451.63 120.77 452.86 C119.44 453.81 119.44 453.81 118.09 454.77 C113.52 458.1 109.05 461.55 104.56 465 C92.27 474.39 92.27 474.39 86.56 478.56 C85.55 479.31 84.53 480.06 83.48 480.83 C76.53 485.13 69.9 486.92 61.78 485.2 C57.54 484.42 54.68 483.92 50.94 486.3 C49.29 487.82 47.69 489.39 46.11 491 C35.77 501.4 23.39 510.86 8.17 511.04 C7.03 511.04 7.03 511.04 5.86 511.04 C4.63 511.05 4.63 511.05 3.37 511.06 C0.67 511.08 -2.03 511.08 -4.73 511.09 C-6.63 511.09 -8.52 511.1 -10.41 511.11 C-14.37 511.12 -18.33 511.12 -22.29 511.12 C-27.34 511.12 -32.39 511.15 -37.45 511.18 C-41.35 511.2 -45.26 511.21 -49.17 511.21 C-51.03 511.21 -52.89 511.22 -54.75 511.23 C-70.2 511.35 -81.66 509.42 -93.62 498.75 C-101.67 490.4 -105.37 478.31 -109.62 467.75 C-109.91 467.05 -110.19 466.35 -110.48 465.63 C-114.9 454.69 -119.27 443.72 -123.62 432.75 C-124.87 432.89 -126.11 433.04 -127.39 433.18 C-128.09 433.26 -128.79 433.34 -129.51 433.43 C-131.92 433.75 -131.92 433.75 -135.38 434.81 C-141.6 436.44 -148.53 436.93 -154.59 434.62 C-158.29 432.34 -161.07 429.68 -164.06 426.56 C-164.93 425.68 -164.93 425.68 -165.81 424.78 C-169.2 421.3 -172.48 417.74 -175.63 414.03 C-178.51 410.74 -181.51 407.56 -184.5 404.38 C-189.18 399.39 -193.8 394.36 -198.36 389.27 C-201.05 386.28 -203.77 383.33 -206.5 380.38 C-207 379.83 -207.51 379.28 -208.03 378.72 C-210.57 375.96 -213.13 373.21 -215.7 370.46 C-216.67 369.41 -217.65 368.36 -218.62 367.31 C-219.49 366.39 -220.36 365.46 -221.25 364.5 C-227.51 357.25 -229.15 352.09 -228.62 342.75 C-228.22 339.72 -227.63 336.75 -226.98 333.77 C-226.81 332.95 -226.64 332.14 -226.46 331.3 C-226.1 329.58 -225.74 327.87 -225.37 326.17 C-224.81 323.56 -224.27 320.95 -223.73 318.35 C-223.38 316.67 -223.02 315 -222.67 313.33 C-222.51 312.56 -222.35 311.79 -222.18 310.99 C-221.42 307.49 -220.68 304.85 -218.91 301.68 C-217.21 297.81 -217.9 295.14 -218.95 291.21 C-219.14 290.45 -219.33 289.69 -219.52 288.9 C-220.19 286.18 -220.91 283.46 -221.62 280.75 C-221.9 279.68 -222.18 278.61 -222.47 277.51 C-223.41 273.92 -224.35 270.34 -225.3 266.75 C-225.63 265.51 -225.95 264.26 -226.29 262.97 C-226.63 261.7 -226.96 260.43 -227.31 259.12 C-227.48 258.48 -227.65 257.84 -227.82 257.18 C-228.68 253.92 -229.55 250.66 -230.44 247.4 C-241.52 206.56 -241.52 206.56 -231.07 187.99 C-225.96 179.94 -219.89 172.52 -213.99 165.05 C-210.8 161 -207.7 156.89 -204.62 152.75 C-205.69 150.55 -206.77 148.55 -208.16 146.53 C-210.08 142.89 -210.58 139.31 -211.11 135.29 C-211.23 134.43 -211.35 133.57 -211.48 132.68 C-213.05 121.14 -214.27 109.55 -215.47 97.96 C-215.88 94.03 -216.3 90.11 -216.73 86.18 C-216.99 83.66 -217.25 81.14 -217.52 78.61 C-217.64 77.45 -217.77 76.29 -217.9 75.1 C-218.84 65.77 -219.41 56.67 -213.62 48.75 C-208.08 43.39 -201.72 40.99 -194.48 38.7 C-193.44 38.35 -192.4 38.01 -191.32 37.66 C-188.01 36.57 -184.69 35.5 -181.38 34.44 C-179.13 33.7 -176.89 32.97 -174.65 32.23 C-170.55 30.89 -166.46 29.56 -162.36 28.24 C-161.54 27.97 -160.72 27.71 -159.87 27.44 C-150.74 24.65 -144.11 25.47 -135.62 29.75 C-134.42 30.67 -133.22 31.6 -132.03 32.55 C-127.17 36.04 -122.69 38.39 -116.62 38.75 C-106.69 36.7 -97.52 31.84 -88.44 27.46 C-79.03 22.92 -69.41 18.94 -59.77 14.92 C-55.96 13.33 -52.16 11.72 -48.36 10.11 C-44.91 8.64 -41.45 7.19 -37.99 5.75 C-35.75 4.8 -33.51 3.84 -31.27 2.88 C-21.03 -1.45 -10.9 -3.91 0 0 Z " fill="#908190" transform="translate(281.625,1.25)"/>
<path d="M0 0 C6.22 3.34 11.47 8.52 16.68 13.22 C18.26 14.65 19.86 16.06 21.46 17.46 C29.22 24.32 29.22 24.32 29.75 29.12 C29.38 32.75 29.38 32.75 27.25 35.19 C23.8 37.06 22.25 37.28 18.38 36.75 C16.06 35 14.2 33.36 12.19 31.31 C11.05 30.21 9.91 29.11 8.77 28.02 C7.92 27.19 7.92 27.19 7.06 26.35 C4.56 23.98 1.96 21.77 -0.69 19.56 C-1.54 18.85 -2.4 18.13 -3.29 17.39 C-7.59 14.37 -11.42 14.45 -16.62 14.75 C-19.65 15.63 -22.49 16.86 -25.38 18.12 C-26.64 18.66 -26.64 18.66 -27.93 19.21 C-30.69 20.38 -33.44 21.56 -36.19 22.75 C-38.1 23.56 -40.01 24.38 -41.92 25.19 C-45.85 26.86 -49.79 28.54 -53.72 30.23 C-62.06 33.8 -70.42 37.3 -78.79 40.81 C-82.8 42.5 -86.81 44.19 -90.82 45.88 C-91.52 46.18 -92.21 46.47 -92.93 46.77 C-94.49 47.43 -96.06 48.09 -97.62 48.75 C-93.94 51.92 -90.28 54.06 -85.89 56.14 C-84.58 56.77 -83.27 57.41 -81.96 58.04 C-79.93 59.02 -77.89 59.99 -75.85 60.96 C-63.99 66.58 -54.49 71.52 -49.76 84.44 C-49.38 85.53 -49.01 86.62 -48.62 87.75 C-48.19 88.92 -47.76 90.09 -47.31 91.3 C-46.17 94.39 -45.06 97.49 -43.98 100.61 C-43.31 102.52 -42.62 104.42 -41.94 106.32 C-38.21 117.01 -38.11 123.98 -40.88 134.88 C-41.1 135.8 -41.33 136.72 -41.56 137.67 C-43.15 144.05 -44.86 150.38 -46.73 156.68 C-47.58 159.61 -48.33 162.54 -49.06 165.5 C-51.03 172.65 -53.55 180.79 -60.33 184.71 C-72.38 190.18 -87.65 190.09 -100.62 191.38 C-103.82 191.7 -107.02 192.03 -110.22 192.35 C-112.19 192.56 -114.16 192.75 -116.14 192.95 C-120.67 193.41 -125.14 193.97 -129.62 194.75 C-140.17 195.61 -147.53 190.45 -155.81 184.44 C-157.55 183.2 -159.29 181.96 -161.03 180.72 C-161.93 180.08 -162.83 179.43 -163.77 178.77 C-168.76 175.24 -173.82 171.81 -178.88 168.38 C-179.85 167.71 -180.82 167.05 -181.82 166.37 C-184.09 164.83 -186.35 163.29 -188.62 161.75 C-192.07 163.18 -193.75 164.84 -195.95 167.83 C-196.56 168.65 -197.17 169.48 -197.8 170.33 C-198.45 171.21 -199.09 172.09 -199.75 173 C-200.41 173.9 -201.08 174.8 -201.76 175.73 C-203.1 177.55 -204.43 179.37 -205.76 181.19 C-207.4 183.44 -209.06 185.68 -210.73 187.91 C-211.61 189.1 -212.49 190.3 -213.38 191.5 C-214.13 192.53 -214.89 193.55 -215.67 194.61 C-221.41 203.83 -221.73 212.46 -219.4 223.01 C-218.85 225.28 -218.28 227.54 -217.7 229.8 C-217.4 231.02 -217.1 232.23 -216.79 233.49 C-215.99 236.7 -215.18 239.91 -214.37 243.11 C-213.55 246.34 -212.75 249.57 -211.95 252.79 C-209.28 263.52 -206.56 274.19 -203.38 284.77 C-202.62 287.75 -202.62 287.75 -202.62 291.75 C-201.72 291.61 -200.81 291.46 -199.87 291.31 C-196.5 290.81 -193.13 290.37 -189.74 289.99 C-187.77 289.77 -185.81 289.52 -183.85 289.27 C-173.2 288.49 -167.35 292.13 -159.04 298.07 C-156.25 300.01 -153.4 301.85 -150.54 303.68 C-141.54 309.45 -141.54 309.45 -138.19 311.62 C-137.33 312.18 -136.48 312.73 -135.6 313.3 C-133.62 314.75 -133.62 314.75 -132.62 316.75 C-132.27 320.62 -132.06 322.9 -134.25 326.19 C-137.47 328.31 -138.78 328.27 -142.62 327.75 C-145.98 326.05 -149.03 323.94 -152.12 321.81 C-153.45 320.93 -153.45 320.93 -154.8 320.03 C-158.8 317.37 -162.77 314.66 -166.7 311.88 C-173.53 307.12 -178.24 304.27 -186.62 305.75 C-188.16 305.99 -189.7 306.22 -191.24 306.45 C-195.72 307.15 -200.17 307.93 -204.62 308.75 C-205.63 313.46 -206.63 318.18 -207.62 322.89 C-207.95 324.49 -208.29 326.09 -208.63 327.7 C-209.13 330.01 -209.61 332.32 -210.09 334.63 C-210.25 335.34 -210.4 336.04 -210.56 336.77 C-212.29 344.42 -212.29 344.42 -210.52 351.73 C-209.97 352.27 -209.43 352.81 -208.88 353.38 C-207.92 354.38 -207.92 354.38 -206.94 355.4 C-206.17 356.17 -205.41 356.95 -204.62 357.75 C-203.21 359.27 -201.8 360.8 -200.4 362.34 C-198.85 364.03 -197.3 365.71 -195.74 367.39 C-192.84 370.52 -189.95 373.66 -187.06 376.81 C-186.61 377.3 -186.16 377.79 -185.7 378.3 C-184.79 379.29 -183.89 380.28 -182.98 381.27 C-180.7 383.76 -178.41 386.26 -176.12 388.75 C-175.21 389.75 -174.29 390.75 -173.38 391.75 C-172.69 392.49 -172.69 392.49 -172 393.25 C-167.88 397.75 -167.88 397.75 -166.5 399.25 C-165.59 400.25 -164.68 401.24 -163.76 402.23 C-161.36 404.83 -158.99 407.46 -156.66 410.14 C-156.18 410.69 -155.69 411.24 -155.19 411.81 C-153.83 413.35 -152.48 414.9 -151.13 416.45 C-148.36 418.99 -147.27 419.34 -143.62 419.75 C-141.19 419.47 -141.19 419.47 -138.71 418.79 C-137.77 418.56 -136.82 418.33 -135.84 418.09 C-134.83 417.82 -133.82 417.56 -132.78 417.29 C-131.73 417.03 -130.68 416.77 -129.6 416.5 C-127.38 415.94 -125.17 415.38 -122.96 414.81 C-119.57 413.94 -116.19 413.09 -112.79 412.24 C-110.64 411.7 -108.49 411.15 -106.34 410.61 C-105.33 410.35 -104.31 410.09 -103.27 409.83 C-102.32 409.59 -101.38 409.35 -100.41 409.09 C-99.58 408.88 -98.75 408.67 -97.89 408.45 C-95.59 407.74 -93.65 407.07 -91.62 405.75 C-91.06 402.68 -90.82 399.85 -90.62 396.75 C-90.4 394.84 -90.4 394.84 -90.17 392.88 C-87.45 374.48 -87.45 374.48 -92.94 357.68 C-98.65 352.84 -105.11 349.67 -112.08 347.01 C-114.91 345.61 -116.06 344.46 -117.62 341.75 C-118.15 338.13 -118.08 336.45 -116.06 333.38 C-112.58 331.05 -110.8 331.24 -106.62 331.75 C-103.09 333.47 -99.92 335.65 -96.69 337.88 C-95.83 338.44 -94.98 339.01 -94.1 339.6 C-91.58 341.29 -89.1 343.01 -86.62 344.75 C-85.88 345.25 -85.13 345.75 -84.35 346.27 C-83.66 346.76 -82.96 347.24 -82.25 347.74 C-81.64 348.16 -81.04 348.57 -80.41 349 C-76.55 352.78 -74.46 356.65 -74.14 362.01 C-74.13 363.58 -74.14 365.15 -74.16 366.73 C-74.16 367.57 -74.17 368.42 -74.17 369.29 C-74.17 371.08 -74.19 372.87 -74.21 374.65 C-74.25 377.35 -74.25 380.04 -74.25 382.73 C-74.36 409.79 -74.36 409.79 -80.62 416.75 C-85.34 421.3 -89.45 422.99 -95.75 424.56 C-96.55 424.78 -97.35 424.99 -98.17 425.22 C-101.86 426.19 -104.76 426.75 -108.62 426.75 C-108.28 427.56 -107.94 428.38 -107.59 429.21 C-106.84 431 -106.09 432.79 -105.34 434.58 C-103.88 438.05 -102.43 441.52 -100.96 444.99 C-98.18 451.6 -95.42 458.21 -92.78 464.87 C-92.35 465.94 -91.92 467.02 -91.48 468.12 C-90.68 470.1 -89.9 472.09 -89.14 474.08 C-85.52 483.07 -80.69 489.48 -71.82 493.73 C-65.01 495.91 -57.77 495.42 -50.68 495.34 C-48.95 495.34 -47.21 495.34 -45.48 495.34 C-41.86 495.34 -38.23 495.32 -34.61 495.29 C-29.99 495.25 -25.37 495.25 -20.75 495.26 C-17.17 495.26 -13.59 495.25 -10.01 495.23 C-8.31 495.22 -6.6 495.22 -4.9 495.22 C11.28 495.22 11.28 495.22 25.12 487.31 C26.45 486.17 26.45 486.17 27.8 485 C28.65 484.26 29.5 483.52 30.38 482.75 C32.04 481.41 33.7 480.07 35.38 478.75 C33.75 478.31 33.75 478.31 32.09 477.87 C17.74 473.83 17.74 473.83 13.38 467.75 C11.58 462.37 12.07 456.45 12.02 450.81 C12.01 449.28 11.98 447.74 11.94 446.21 C11.59 431.85 11.59 431.85 14.58 427.47 C17.15 424.97 19.66 422.62 22.5 420.44 C26.43 417.33 30.2 414.15 33.88 410.75 C38.32 406.66 42.92 402.83 47.62 399.04 C50.5 396.65 53.25 394.16 56 391.62 C59.3 388.61 62.6 385.63 66.06 382.81 C67.03 382.03 67.03 382.03 68.01 381.22 C74.47 377.2 80.26 376.32 87.69 376.46 C88.54 376.46 89.4 376.47 90.28 376.47 C92.98 376.49 95.68 376.52 98.38 376.56 C100.22 376.58 102.06 376.59 103.9 376.6 C108.39 376.64 112.88 376.69 117.38 376.75 C117.36 375.79 117.34 374.83 117.32 373.84 C117.16 364.66 117.04 355.49 116.96 346.31 C116.92 341.6 116.86 336.88 116.77 332.17 C116.03 293.25 116.03 293.25 124.27 274.34 C126.14 269.95 127.63 265.43 129.19 260.92 C129.81 259.18 130.44 257.43 131.07 255.69 C131.38 254.83 131.69 253.98 132 253.09 C132.31 252.24 132.62 251.38 132.94 250.5 C134.19 247.02 135.44 243.53 136.69 240.05 C136.99 239.21 137.3 238.36 137.61 237.5 C140.92 228.27 144.15 219.01 147.38 209.75 C146.61 209.67 145.84 209.59 145.06 209.51 C141.54 209.13 138.02 208.75 134.5 208.38 C133.3 208.25 132.09 208.12 130.85 207.99 C111.03 205.84 102.2 200.04 89.15 184.81 C87.1 182.43 84.99 180.09 82.88 177.75 C79.63 174.16 76.43 170.53 73.26 166.88 C70.98 164.3 68.64 161.78 66.31 159.25 C56.76 148.74 52.78 142.22 53.38 127.75 C53.81 123.9 54.48 120.12 55.19 116.31 C55.56 114.22 55.93 112.13 56.29 110.04 C56.57 108.47 56.57 108.47 56.85 106.88 C57.81 101.14 58.58 95.38 59.34 89.61 C59.98 84.83 60.93 80.36 62.38 75.75 C61.77 75.2 61.16 74.66 60.54 74.1 C58.78 72.51 57.02 70.93 55.26 69.34 C53.36 67.63 51.46 65.93 49.55 64.22 C48.67 63.42 47.79 62.63 46.88 61.81 C46.06 61.08 45.25 60.35 44.41 59.6 C40.39 55.95 40.39 55.95 40.06 52.38 C40.38 48.75 40.38 48.75 41.38 46.31 C43.86 44.37 45.88 43.88 49.02 44.06 C55.54 45.97 60.87 51.99 65.28 56.99 C74.76 67.34 83.5 69.15 97.12 70.38 C99.85 70.67 102.57 70.98 105.29 71.3 C107.02 71.5 108.76 71.69 110.49 71.88 C127.57 73.81 136.57 81.92 147.49 94.58 C149.59 97 151.73 99.38 153.88 101.75 C157.75 106.05 161.6 110.36 165.38 114.75 C166.11 115.58 166.84 116.41 167.6 117.27 C178.38 129.85 183.17 142.46 182.13 159.04 C181.73 163.81 181.2 168.56 180.61 173.32 C180.25 176.27 179.92 179.23 179.6 182.19 C179.38 184.09 179.16 186 178.93 187.91 C178.83 188.78 178.74 189.65 178.64 190.55 C177.76 197.39 175.98 203.28 170.88 208.12 C168.37 209.75 168.37 209.75 166.33 210.5 C163.5 212.31 163.37 214.17 162.62 217.38 C162.38 218.38 162.14 219.38 161.89 220.41 C161.64 221.57 161.64 221.57 161.38 222.75 C162.66 223.48 162.66 223.48 163.97 224.22 C174.19 230.14 181.52 236.17 185.38 247.75 C185.87 250.94 185.85 254.03 185.75 257.25 C185.74 258.16 185.72 259.08 185.71 260.02 C185.51 269.02 185.01 278.01 184.5 287 C184.46 287.71 184.42 288.42 184.38 289.15 C183.16 310.79 183.16 310.79 178.69 318 C178.23 318.77 177.77 319.54 177.3 320.33 C172.72 326.08 167.13 329.74 160.54 332.84 C159.83 333.18 159.11 333.53 158.37 333.89 C156.87 334.61 155.36 335.33 153.86 336.04 C151.55 337.13 149.24 338.24 146.94 339.36 C145.47 340.06 144.01 340.76 142.54 341.46 C141.85 341.79 141.16 342.12 140.45 342.46 C135.61 344.75 135.61 344.75 133.38 344.75 C133.42 349.64 133.49 354.54 133.58 359.43 C133.61 361.09 133.63 362.76 133.65 364.42 C133.67 366.82 133.71 369.21 133.77 371.61 C133.77 372.72 133.77 372.72 133.77 373.85 C133.91 378.79 134.98 381.2 138.38 384.75 C139.57 387.15 139.53 388.69 139.57 391.36 C139.59 392.8 139.59 392.8 139.62 394.27 C139.66 398.66 139.7 403.06 139.73 407.45 C139.74 409.77 139.77 412.08 139.81 414.4 C139.86 417.74 139.88 421.08 139.9 424.42 C139.92 425.45 139.94 426.48 139.97 427.54 C139.95 434.06 139 438.04 134.38 442.75 C132.4 444.58 132.4 444.58 130.47 445.93 C129.74 446.46 129 446.99 128.25 447.53 C127.46 448.08 126.68 448.62 125.88 449.19 C124.17 450.41 122.47 451.63 120.77 452.86 C119.44 453.81 119.44 453.81 118.09 454.77 C113.52 458.1 109.05 461.55 104.56 465 C92.27 474.39 92.27 474.39 86.56 478.56 C85.55 479.31 84.53 480.06 83.48 480.83 C76.53 485.13 69.9 486.92 61.78 485.2 C57.54 484.42 54.68 483.92 50.94 486.3 C49.29 487.82 47.69 489.39 46.11 491 C35.77 501.4 23.39 510.86 8.17 511.04 C7.03 511.04 7.03 511.04 5.86 511.04 C4.63 511.05 4.63 511.05 3.37 511.06 C0.67 511.08 -2.03 511.08 -4.73 511.09 C-6.63 511.09 -8.52 511.1 -10.41 511.11 C-14.37 511.12 -18.33 511.12 -22.29 511.12 C-27.34 511.12 -32.39 511.15 -37.45 511.18 C-41.35 511.2 -45.26 511.21 -49.17 511.21 C-51.03 511.21 -52.89 511.22 -54.75 511.23 C-70.2 511.35 -81.66 509.42 -93.62 498.75 C-101.67 490.4 -105.37 478.31 -109.62 467.75 C-109.91 467.05 -110.19 466.35 -110.48 465.63 C-114.9 454.69 -119.27 443.72 -123.62 432.75 C-124.87 432.89 -126.11 433.04 -127.39 433.18 C-128.09 433.26 -128.79 433.34 -129.51 433.43 C-131.92 433.75 -131.92 433.75 -135.38 434.81 C-141.6 436.44 -148.53 436.93 -154.59 434.62 C-158.29 432.34 -161.07 429.68 -164.06 426.56 C-164.93 425.68 -164.93 425.68 -165.81 424.78 C-169.2 421.3 -172.48 417.74 -175.63 414.03 C-178.51 410.74 -181.51 407.56 -184.5 404.38 C-189.18 399.39 -193.8 394.36 -198.36 389.27 C-201.05 386.28 -203.77 383.33 -206.5 380.38 C-207 379.83 -207.51 379.28 -208.03 378.72 C-210.57 375.96 -213.13 373.21 -215.7 370.46 C-216.67 369.41 -217.65 368.36 -218.62 367.31 C-219.49 366.39 -220.36 365.46 -221.25 364.5 C-227.51 357.25 -229.15 352.09 -228.62 342.75 C-228.22 339.72 -227.63 336.75 -226.98 333.77 C-226.81 332.95 -226.64 332.14 -226.46 331.3 C-226.1 329.58 -225.74 327.87 -225.37 326.17 C-224.81 323.56 -224.27 320.95 -223.73 318.35 C-223.38 316.67 -223.02 315 -222.67 313.33 C-222.51 312.56 -222.35 311.79 -222.18 310.99 C-221.42 307.49 -220.68 304.85 -218.91 301.68 C-217.21 297.81 -217.9 295.14 -218.95 291.21 C-219.14 290.45 -219.33 289.69 -219.52 288.9 C-220.19 286.18 -220.91 283.46 -221.62 280.75 C-221.9 279.68 -222.18 278.61 -222.47 277.51 C-223.41 273.92 -224.35 270.34 -225.3 266.75 C-225.63 265.51 -225.95 264.26 -226.29 262.97 C-226.63 261.7 -226.96 260.43 -227.31 259.12 C-227.48 258.48 -227.65 257.84 -227.82 257.18 C-228.68 253.92 -229.55 250.66 -230.44 247.4 C-241.52 206.56 -241.52 206.56 -231.07 187.99 C-225.96 179.94 -219.89 172.52 -213.99 165.05 C-210.8 161 -207.7 156.89 -204.62 152.75 C-205.69 150.55 -206.77 148.55 -208.16 146.53 C-210.08 142.89 -210.58 139.31 -211.11 135.29 C-211.23 134.43 -211.35 133.57 -211.48 132.68 C-213.05 121.14 -214.27 109.55 -215.47 97.96 C-215.88 94.03 -216.3 90.11 -216.73 86.18 C-216.99 83.66 -217.25 81.14 -217.52 78.61 C-217.64 77.45 -217.77 76.29 -217.9 75.1 C-218.84 65.77 -219.41 56.67 -213.62 48.75 C-208.08 43.39 -201.72 40.99 -194.48 38.7 C-193.44 38.35 -192.4 38.01 -191.32 37.66 C-188.01 36.57 -184.69 35.5 -181.38 34.44 C-179.13 33.7 -176.89 32.97 -174.65 32.23 C-170.55 30.89 -166.46 29.56 -162.36 28.24 C-161.54 27.97 -160.72 27.71 -159.87 27.44 C-150.74 24.65 -144.11 25.47 -135.62 29.75 C-134.42 30.67 -133.22 31.6 -132.03 32.55 C-127.17 36.04 -122.69 38.39 -116.62 38.75 C-106.69 36.7 -97.52 31.84 -88.44 27.46 C-79.03 22.92 -69.41 18.94 -59.77 14.92 C-55.96 13.33 -52.16 11.72 -48.36 10.11 C-44.91 8.64 -41.45 7.19 -37.99 5.75 C-35.75 4.8 -33.51 3.84 -31.27 2.88 C-21.03 -1.45 -10.9 -3.91 0 0 Z " fill="#020101" transform="translate(281.625,1.25)"/>
<path d="M0 0 C8.24 -0.71 13.61 3.46 20.18 7.98 C21.25 8.7 22.32 9.41 23.42 10.14 C27.4 12.79 31.35 15.48 35.27 18.2 C36.07 18.75 36.86 19.29 37.68 19.85 C38.36 20.33 39.04 20.8 39.75 21.29 C42.47 22.85 44.56 22.95 47.61 22.36 C48.27 21.7 48.93 21.04 49.61 20.36 C54.15 20.62 57.18 22.79 60.86 25.29 C61.92 26.01 62.98 26.72 64.07 27.45 C66.61 29.36 66.61 29.36 67.61 31.36 C67.53 32.29 67.45 33.21 67.36 34.17 C67.64 37.65 68.33 38.7 70.8 41.05 C73.05 42.67 75.35 43.6 77.91 44.64 C84.48 47.53 90.39 50.36 94.61 56.36 C97.84 66.31 96.14 78.26 95.03 88.48 C94.78 90.77 94.58 93.06 94.47 95.36 C94.34 97.78 94.34 97.78 93.61 101.36 C89.15 105.03 83.29 105.95 77.8 107.31 C76.23 107.71 76.23 107.71 74.63 108.11 C72.42 108.67 70.21 109.22 68 109.77 C64.62 110.61 61.25 111.46 57.87 112.33 C55.72 112.86 53.57 113.4 51.43 113.94 C50.42 114.19 49.41 114.45 48.37 114.72 C47.43 114.95 46.48 115.18 45.51 115.42 C44.68 115.62 43.85 115.83 43 116.04 C40.26 116.4 38.27 116.12 35.61 115.36 C33.4 113.57 33.4 113.57 31.24 111.29 C30.45 110.47 29.66 109.65 28.85 108.8 C26.44 106.16 24.08 103.49 21.75 100.78 C18.81 97.45 15.77 94.22 12.74 90.98 C8.06 85.99 3.44 80.97 -1.12 75.87 C-3.81 72.89 -6.53 69.93 -9.26 66.98 C-9.76 66.44 -10.27 65.9 -10.78 65.34 C-12.84 63.11 -14.9 60.88 -16.96 58.66 C-18.48 57.02 -20 55.37 -21.51 53.73 C-22.85 52.29 -22.85 52.29 -24.21 50.82 C-28.36 46.13 -28.36 46.13 -28.47 42.74 C-27.74 34.2 -26.26 25.97 -24.39 17.61 C-24.11 16.34 -23.84 15.07 -23.56 13.76 C-21.53 4.5 -21.53 4.5 -20.39 3.36 C-17.58 2.78 -14.78 2.27 -11.95 1.79 C-11.18 1.66 -10.41 1.52 -9.62 1.38 C-6.42 0.84 -3.2 0.48 0 0 Z " fill="#FED2D5" transform="translate(97.386962890625,305.642578125)"/>
<path d="M0 0 C6.59 0.07 13.04 1.06 19.53 2.12 C21.61 2.45 23.69 2.76 25.77 3.07 C36.84 4.79 42.99 7.57 50.42 15.95 C50.99 16.58 51.55 17.21 52.14 17.85 C53.74 19.63 55.33 21.41 56.92 23.2 C57.6 23.98 58.29 24.75 59 25.55 C60.09 26.79 61.17 28.04 62.25 29.29 C64.23 31.57 66.26 33.79 68.29 36.02 C86.68 56.51 86.68 56.51 85.92 73.2 C85.49 78.91 84.89 84.6 84.26 90.29 C83.98 92.92 83.7 95.56 83.43 98.19 C83.25 99.87 83.07 101.54 82.89 103.21 C82.81 104 82.73 104.79 82.64 105.6 C82.03 111.09 82.03 111.09 80.92 112.2 C70.59 112.28 60.15 110.8 49.92 109.58 C48.67 109.45 47.41 109.32 46.12 109.19 C38 108.16 33.36 106.36 27.92 100.2 C26.68 98.92 26.68 98.92 25.41 97.61 C24.73 96.84 24.06 96.06 23.36 95.27 C22.6 94.41 21.84 93.55 21.07 92.67 C20.36 91.86 19.65 91.04 18.92 90.2 C18.33 89.53 17.75 88.86 17.14 88.17 C16.03 86.89 14.91 85.61 13.8 84.33 C11.53 81.76 9.23 79.23 6.92 76.7 C-0.63 68.41 -0.63 68.41 -3.41 65.16 C-4.6 63.77 -5.82 62.4 -7.07 61.06 C-11.15 56.39 -12.86 53.21 -12.52 46.95 C-12.15 44.61 -11.67 42.34 -11.14 40.03 C-10 35.04 -9.27 30.03 -8.58 24.95 C-8.32 23.11 -8.07 21.27 -7.81 19.42 C-7.69 18.53 -7.56 17.65 -7.43 16.73 C-6.96 13.3 -6.46 9.88 -5.96 6.45 C-5.81 5.45 -5.66 4.44 -5.51 3.41 C-4.79 -0.3 -3.5 0.04 0 0 Z " fill="#FDD2D5" transform="translate(362.08203125,84.796875)"/>
<path d="M0 0 C0.6 0.31 1.21 0.61 1.83 0.93 C3.78 1.92 5.73 2.93 7.67 3.95 C9.03 4.64 10.4 5.34 11.76 6.04 C15.66 8.03 19.54 10.05 23.42 12.07 C24.34 12.55 25.26 13.03 26.21 13.52 C29.93 15.46 33.63 17.42 37.33 19.39 C41.51 21.6 45.71 23.76 49.92 25.91 C51.25 26.59 52.58 27.28 53.92 27.96 C55.91 28.98 57.9 30 59.89 31.01 C61.75 31.95 63.6 32.9 65.45 33.85 C66.53 34.4 67.61 34.95 68.72 35.51 C73.8 38.44 75 41.03 76.9 46.6 C77.12 47.23 77.34 47.87 77.56 48.52 C78.02 49.85 78.47 51.19 78.92 52.52 C79.61 54.57 80.31 56.61 81.01 58.64 C84.42 68.63 84.42 68.63 84.42 72.07 C79.57 73.82 74.72 75.54 69.85 77.25 C68.2 77.84 66.55 78.42 64.9 79.02 C62.53 79.87 60.15 80.71 57.76 81.54 C57.03 81.81 56.3 82.08 55.55 82.35 C48.03 84.93 42.65 83.47 35.53 80.07 C34.88 79.76 34.23 79.46 33.56 79.14 C31.43 78.12 29.3 77.1 27.17 76.07 C25.67 75.35 24.17 74.64 22.67 73.92 C17.91 71.65 13.17 69.36 8.42 67.07 C6.83 66.3 5.23 65.53 3.63 64.76 C-14.25 56.13 -14.25 56.13 -20.74 52.92 C-23.99 51.32 -27.24 49.76 -30.54 48.29 C-41.75 43.19 -41.75 43.19 -44.35 37.42 C-44.59 36.77 -44.83 36.12 -45.08 35.45 C-45.37 34.76 -45.67 34.07 -45.98 33.36 C-46.58 31.95 -47.16 30.54 -47.73 29.13 C-48.55 27.13 -49.46 25.21 -50.43 23.28 C-54.65 14.76 -54.65 14.76 -54.37 12.01 C-53.58 10.07 -53.58 10.07 -51.99 9.1 C-51.3 8.87 -50.61 8.65 -49.9 8.42 C-49.13 8.16 -48.35 7.9 -47.55 7.64 C-46.7 7.37 -45.85 7.11 -44.98 6.84 C-44.11 6.55 -43.24 6.27 -42.34 5.98 C-40.5 5.38 -38.65 4.79 -36.8 4.21 C-33.98 3.33 -31.17 2.41 -28.36 1.5 C-26.57 0.92 -24.77 0.35 -22.98 -0.23 C-22.14 -0.5 -21.31 -0.77 -20.44 -1.05 C-12.76 -3.44 -7.36 -3.78 0 0 Z " fill="#FDD1D4" transform="translate(141.578125,45.9296875)"/>
<path d="M0 0 C2.95 0.44 5.91 0.75 8.88 1.06 C18.28 2.06 18.28 2.06 22.3 2.54 C23.71 2.71 23.71 2.71 25.15 2.87 C27.44 3.36 27.44 3.36 29.44 5.36 C29.85 7.87 29.85 7.87 30.07 11.05 C30.16 12.21 30.24 13.38 30.33 14.58 C30.64 19.67 30.94 24.76 31.21 29.86 C31.4 32.82 31.69 35.74 32.06 38.69 C32.7 45.14 32.81 50.01 28.73 55.33 C25.81 58.67 22.61 61.66 19.32 64.63 C16.51 67.21 13.99 70.03 11.44 72.86 C10.47 73.91 9.49 74.95 8.52 76 C6.24 78.46 4.03 80.97 1.82 83.5 C0.9 84.55 0.9 84.55 -0.04 85.61 C-1.24 86.95 -2.42 88.31 -3.58 89.69 C-6.28 92.69 -7.73 94.2 -11.77 94.99 C-17 94.12 -21.91 92.62 -26.94 90.99 C-28.92 90.35 -30.91 89.72 -32.9 89.09 C-34.33 88.63 -34.33 88.63 -35.79 88.17 C-39.06 87.22 -42.34 86.58 -45.71 86.06 C-48.47 85.02 -49.15 83.98 -50.56 81.36 C-51.39 78.25 -51.87 75.1 -52.35 71.92 C-52.57 70.55 -52.57 70.55 -52.8 69.14 C-53.27 66.22 -53.73 63.29 -54.19 60.36 C-54.65 57.43 -55.12 54.5 -55.59 51.58 C-55.89 49.76 -56.17 47.94 -56.46 46.11 C-56.59 45.29 -56.72 44.46 -56.85 43.61 C-56.97 42.88 -57.08 42.16 -57.2 41.41 C-57.56 39.36 -58.06 37.38 -58.56 35.36 C-59.4 30.19 -59.4 30.19 -58.56 27.36 C-56.95 25.89 -56.95 25.89 -54.76 24.53 C-53.94 24.02 -53.12 23.51 -52.28 22.98 C-51.38 22.45 -50.48 21.91 -49.56 21.36 C-48.64 20.81 -47.73 20.26 -46.78 19.7 C-42.74 17.31 -38.66 14.97 -34.59 12.64 C-27.98 8.85 -27.98 8.85 -21.64 4.64 C-14.09 -0.69 -9.09 -1.45 0 0 Z " fill="#FDD1D4" transform="translate(290.56201171875,238.6396484375)"/>
<path d="M0 0 C2.84 3.54 4.53 7.22 6.33 11.37 C11.2 19.03 18.95 22.14 27 25.69 C29.5 26.82 32 27.95 34.5 29.09 C35.17 29.39 35.83 29.7 36.52 30.01 C44.57 33.68 52.5 37.6 60.45 41.5 C65.43 43.94 70.42 46.37 75.41 48.79 C78.78 50.43 82.15 52.07 85.51 53.73 C88.25 55.07 90.99 56.38 93.75 57.69 C94.82 58.22 94.82 58.22 95.91 58.77 C105.21 63.07 113.65 61.19 122.96 57.8 C124.09 57.37 125.22 56.94 126.38 56.5 C128.65 55.65 130.93 54.81 133.21 53.97 C134.2 53.59 135.2 53.21 136.22 52.83 C138.98 52.01 141.14 51.84 144 52 C143.64 53.44 143.64 53.44 143.27 54.9 C143.11 55.54 142.95 56.17 142.78 56.83 C142.42 58.25 142.06 59.67 141.7 61.09 C140.73 64.94 139.82 68.79 138.98 72.67 C138.82 73.43 138.65 74.18 138.48 74.96 C138.17 76.41 137.86 77.87 137.57 79.33 C136.58 83.82 135.45 86.9 132 90 C125.77 91.9 119.57 92.62 113.11 93.25 C112.08 93.36 111.05 93.47 109.99 93.57 C106.72 93.91 103.46 94.24 100.19 94.56 C98 94.79 95.82 95.01 93.64 95.23 C83.35 96.28 83.35 96.28 78.78 96.73 C76.84 96.92 74.9 97.12 72.96 97.33 C71.97 97.43 70.99 97.54 69.98 97.64 C69.1 97.74 68.21 97.83 67.3 97.93 C63.92 98.03 62.2 96.99 59.56 94.94 C58.57 94.2 57.57 93.46 56.55 92.7 C55.72 92.07 55.72 92.07 54.88 91.42 C51.92 89.19 48.88 87.1 45.84 84.99 C43.24 83.18 40.64 81.36 38.05 79.54 C34.2 76.83 30.34 74.16 26.45 71.51 C24.49 70.16 22.54 68.8 20.58 67.45 C18.3 65.86 16.01 64.39 13.64 62.93 C12.15 61.97 12.15 61.97 10.62 61 C9.77 60.48 8.92 59.97 8.04 59.44 C4.7 55.44 4.6 51.07 4 46 C3.87 44.94 3.87 44.94 3.75 43.87 C3.16 38.88 2.64 33.89 2.14 28.89 C1.87 26.24 1.6 23.59 1.32 20.94 C1.15 19.24 0.98 17.53 0.8 15.83 C0.72 15.05 0.64 14.26 0.56 13.46 C0.11 8.95 -0.08 4.53 0 0 Z " fill="#FAB2B8" transform="translate(81,83)"/>
<path d="M0 0 C0.83 0.1 1.67 0.2 2.53 0.3 C4.28 0.51 6.02 0.73 7.77 0.94 C10.43 1.27 13.09 1.57 15.74 1.87 C17.45 2.08 19.16 2.29 20.88 2.5 C22.05 2.63 22.05 2.63 23.25 2.75 C30.39 3.7 35.81 6.46 40.29 12.16 C42.7 17.07 42.81 22.4 43.12 27.77 C43.19 28.89 43.27 30.01 43.34 31.17 C43.86 39.88 44.13 48.6 44.25 57.33 C44.27 58.51 44.3 59.7 44.33 60.92 C44.34 67.18 44.23 71.22 39.87 76.08 C38.73 77.41 38.73 77.41 37.57 78.77 C36.72 79.67 35.87 80.58 35 81.52 C34.52 82.03 34.05 82.53 33.57 83.06 C32.01 84.74 30.44 86.41 28.87 88.08 C27.73 89.3 26.6 90.52 25.46 91.74 C23.69 93.64 21.92 95.53 20.15 97.43 C17.28 100.49 14.42 103.57 11.59 106.68 C-3.84 123.66 -3.84 123.66 -10.55 124.32 C-19.04 124.54 -26.09 122.64 -34.13 120.08 C-36.52 119.41 -38.92 118.74 -41.32 118.08 C-61.13 112.36 -61.13 112.36 -65.66 104.38 C-67.27 100.76 -67.97 97.53 -68.63 93.62 C-68.75 92.91 -68.87 92.2 -69 91.47 C-69.38 89.22 -69.76 86.96 -70.13 84.71 C-70.5 82.5 -70.88 80.29 -71.25 78.07 C-71.5 76.61 -71.75 75.14 -72 73.67 C-72.62 69.99 -73.26 66.32 -73.97 62.66 C-74.11 61.95 -74.24 61.24 -74.38 60.5 C-74.76 58.55 -75.15 56.6 -75.54 54.65 C-76.82 46.91 -77.71 39.63 -73.42 32.71 C-71.22 29.93 -68.41 28.25 -65.38 26.52 C-64.7 26.11 -64.02 25.7 -63.31 25.28 C-60.93 23.86 -58.53 22.47 -56.13 21.08 C-54.16 19.93 -52.2 18.77 -50.23 17.61 C-46.1 15.18 -41.96 12.77 -37.8 10.38 C-34.44 8.44 -31.1 6.46 -27.8 4.41 C-26.86 3.84 -26.86 3.84 -25.91 3.26 C-24.34 2.3 -22.78 1.32 -21.23 0.34 C-14.64 -2.33 -6.92 -0.83 0 0 Z M-21.63 17.77 C-22.94 18.59 -24.26 19.42 -25.57 20.24 C-26.65 20.92 -26.65 20.92 -27.75 21.61 C-33.19 24.98 -38.75 28.16 -44.28 31.39 C-46.05 32.43 -47.81 33.48 -49.57 34.54 C-51.29 35.58 -53.03 36.57 -54.79 37.53 C-55.62 38.01 -56.44 38.48 -57.29 38.98 C-58.03 39.38 -58.77 39.79 -59.53 40.21 C-61.66 42.71 -61.5 44.76 -61.34 47.94 C-61.02 51.21 -60.5 54.4 -59.89 57.62 C-59.76 58.32 -59.63 59.01 -59.5 59.72 C-59.09 61.9 -58.67 64.09 -58.25 66.27 C-57.85 68.43 -57.44 70.59 -57.04 72.75 C-56.77 74.16 -56.5 75.57 -56.24 76.98 C-55.21 82.44 -54.42 87.92 -53.75 93.44 C-53.06 96.37 -52.19 97.9 -50.13 100.08 C-47.08 101.27 -47.08 101.27 -43.5 102.02 C-42.16 102.34 -40.81 102.67 -39.46 103 C-38.76 103.17 -38.05 103.34 -37.33 103.52 C-35.06 104.1 -32.84 104.76 -30.61 105.45 C-29.86 105.68 -29.11 105.91 -28.34 106.14 C-26.9 106.59 -25.46 107.05 -24.03 107.51 C-19.6 108.87 -15.75 109.59 -11.13 109.08 C-8.86 107.69 -8.86 107.69 -7.13 105.58 C-6.46 104.85 -5.79 104.12 -5.1 103.37 C-4.13 102.24 -4.13 102.24 -3.13 101.08 C-2.53 100.4 -1.93 99.72 -1.31 99.02 C-0.15 97.69 1.01 96.35 2.16 95.02 C3.83 93.13 5.57 91.35 7.37 89.58 C10.36 86.63 13.14 83.57 15.83 80.34 C17.87 78.08 17.87 78.08 20.76 75.54 C25.17 71.56 28.43 68.25 29.64 62.29 C29.8 58.49 29.5 54.75 29.13 50.97 C28.82 47.57 28.64 44.18 28.45 40.77 C28.16 35.77 27.87 30.77 27.5 25.77 C27.39 24.2 27.39 24.2 27.28 22.59 C27.09 19.92 27.09 19.92 24.87 18.08 C22.38 17.63 19.96 17.28 17.45 17.01 C16.71 16.93 15.97 16.84 15.21 16.75 C13.65 16.57 12.09 16.39 10.52 16.22 C8.14 15.96 5.77 15.68 3.39 15.41 C1.87 15.23 0.35 15.06 -1.18 14.89 C-1.88 14.81 -2.59 14.72 -3.32 14.64 C-10.75 13.83 -15.31 13.64 -21.63 17.77 Z " fill="#030303" transform="translate(293.12890625,223.91796875)"/>
<path d="M0 0 C0.99 0.01 1.98 0.01 3.01 0.02 C6.16 0.04 9.32 0.09 12.48 0.14 C14.63 0.16 16.77 0.18 18.92 0.2 C24.17 0.24 29.42 0.31 34.67 0.39 C37.65 33.63 37.65 33.63 33.13 42.37 C29.04 46.9 23.88 49.42 18.42 51.98 C13.63 54.44 9.57 57.83 5.36 61.14 C3.69 62.39 2.03 63.64 0.36 64.88 C-2.6 67.09 -5.53 69.31 -8.46 71.56 C-9.69 72.48 -10.91 73.41 -12.14 74.33 C-13.18 75.12 -14.22 75.91 -15.29 76.73 C-20.78 79.73 -26.22 78.39 -32.08 76.93 C-33.95 76.47 -33.95 76.47 -35.87 76 C-37.17 75.67 -38.47 75.34 -39.77 75.02 C-41.07 74.69 -42.36 74.37 -43.66 74.05 C-47.22 73.17 -50.78 72.28 -54.33 71.39 C-55.97 70.98 -57.61 70.57 -59.24 70.16 C-60.26 69.91 -61.28 69.65 -62.33 69.39 C-64.58 47.45 -64.58 47.45 -59.82 41.44 C-57.16 38.8 -54.2 36.63 -51.08 34.56 C-48.49 32.83 -46.15 30.83 -43.77 28.83 C-42.44 27.76 -42.44 27.76 -41.08 26.67 C-38.07 24.17 -35.19 21.55 -32.33 18.89 C-26.86 13.81 -21.17 9.05 -15.33 4.39 C-14.67 3.7 -14.01 3.01 -13.32 2.29 C-8.94 -0.5 -5.09 -0.11 0 0 Z " fill="#FED2D5" transform="translate(371.33203125,392.609375)"/>
<path d="M0 0 C4.44 0.47 8.88 0.95 13.31 1.44 C15.21 1.64 15.21 1.64 17.14 1.85 C18.35 1.98 19.56 2.11 20.8 2.25 C21.92 2.37 23.03 2.49 24.18 2.61 C27 3 27 3 30 4 C28.44 12.18 25.72 19.86 22.91 27.68 C22.41 29.09 21.91 30.51 21.4 31.92 C20.09 35.63 18.76 39.34 17.43 43.05 C15.57 48.25 13.72 53.46 11.87 58.67 C10.65 62.08 9.43 65.5 8.21 68.91 C7.55 70.78 6.89 72.66 6.23 74.54 C5.47 76.69 4.66 78.83 3.8 80.94 C0.22 90.15 0.4 99.15 0.39 108.89 C0.38 110.69 0.36 112.49 0.34 114.29 C0.3 118.98 0.28 123.68 0.26 128.37 C0.24 134.03 0.19 139.68 0.14 145.34 C0.07 153.89 0.04 162.44 0 171 C-11.88 171 -23.76 171 -36 171 C-36 170.67 -36 170.34 -36 170 C-33.36 170 -30.72 170 -28 170 C-28.03 169.31 -28.05 168.62 -28.08 167.91 C-28.32 161.31 -28.55 154.71 -28.78 148.11 C-28.9 144.72 -29.02 141.33 -29.15 137.94 C-29.43 130.16 -29.68 122.37 -29.89 114.58 C-29.99 111.28 -30.14 107.99 -30.31 104.69 C-30.87 90.66 -28.05 79.58 -23 66.56 C-22.3 64.68 -21.6 62.79 -20.91 60.9 C-19.56 57.22 -18.2 53.56 -16.82 49.89 C-14.56 43.85 -12.5 37.76 -10.5 31.62 C-9.91 29.83 -9.31 28.03 -8.72 26.23 C-8.44 25.38 -8.16 24.53 -7.88 23.66 C-6.26 18.77 -4.63 13.88 -3 9 C-2.42 7.25 -1.83 5.5 -1.25 3.75 C-0.63 1.89 -0.63 1.89 0 0 Z " fill="#796C78" transform="translate(399,207)"/>
<path d="M0 0 C6.59 0.07 13.04 1.06 19.53 2.12 C21.61 2.45 23.69 2.76 25.77 3.07 C36.84 4.79 42.99 7.57 50.42 15.95 C50.99 16.58 51.55 17.21 52.14 17.85 C53.74 19.63 55.33 21.41 56.92 23.2 C57.95 24.36 57.95 24.36 59 25.55 C60.09 26.79 61.17 28.04 62.25 29.29 C64.23 31.57 66.26 33.79 68.29 36.02 C86.68 56.51 86.68 56.51 85.92 73.2 C85.49 78.91 84.89 84.6 84.26 90.29 C83.98 92.92 83.7 95.56 83.43 98.19 C83.25 99.87 83.07 101.54 82.89 103.21 C82.81 104 82.73 104.79 82.64 105.6 C82.03 111.09 82.03 111.09 80.92 112.2 C78.5 112.16 76.14 112.06 73.73 111.89 C73.02 111.84 72.31 111.8 71.57 111.75 C53.4 110.44 53.4 110.44 48.92 108.2 C50.38 102.58 51.96 97.06 53.87 91.57 C57.52 80.79 60.22 68.97 56.04 57.95 C44.86 35.52 26 19.7 2.64 10.98 C-0.37 10.12 -2.96 10.05 -6.08 10.2 C-5.94 8.72 -5.79 7.24 -5.64 5.77 C-5.56 4.94 -5.48 4.12 -5.4 3.27 C-4.84 -0.36 -3.34 0.04 0 0 Z " fill="#FAB2B8" transform="translate(362.08203125,84.796875)"/>
<path d="M0 0 C3.54 2.17 6.4 5.07 9.35 7.97 C16.66 16.04 16.66 16.04 25.91 20.53 C29.09 20.2 29.09 20.2 32.79 18.1 C37.41 22.39 42.03 26.68 46.79 31.1 C46.29 32.09 46.29 32.09 45.79 33.1 C45.03 36.34 45.03 36.34 45.79 40.1 C48.1 43.16 50.89 45.59 53.79 48.1 C54.48 48.72 55.17 49.34 55.89 49.98 C59.78 53.45 63.77 56.78 67.79 60.1 C67.59 60.86 67.4 61.63 67.2 62.41 C65.13 70.95 63.81 79.39 62.79 88.1 C62.57 87.54 62.36 86.99 62.15 86.41 C60.32 83.3 57.79 81.29 55.04 79.03 C54.46 78.56 53.88 78.08 53.29 77.58 C48.63 73.73 43.87 70.01 39.1 66.3 C34.19 62.47 29.46 58.44 24.75 54.36 C20.75 50.91 16.69 47.56 12.54 44.28 C8.95 41.44 5.4 38.55 1.85 35.66 C1.16 35.1 0.46 34.53 -0.25 33.95 C-4.18 30.76 -8.11 27.55 -12.03 24.35 C-12.88 23.65 -13.74 22.95 -14.62 22.23 C-16.46 20.71 -18.3 19.19 -20.12 17.65 C-21.56 16.45 -21.56 16.45 -23.03 15.22 C-23.88 14.5 -24.73 13.78 -25.61 13.04 C-28.35 11 -31.12 9.53 -34.21 8.1 C-30.33 5.51 -26.24 3.81 -21.96 1.97 C-21.13 1.6 -20.3 1.23 -19.44 0.84 C-12.61 -2.08 -7.05 -3.36 0 0 Z " fill="#796C78" transform="translate(277.21435546875,16.9033203125)"/>
<path d="M0 0 C6.38 2.8 11.06 5.16 15 11 C18.31 20.94 15.67 34.05 14.99 44.41 C14.87 46.31 14.76 48.21 14.66 50.11 C14.51 52.89 14.33 55.67 14.14 58.45 C14.1 59.29 14.06 60.13 14.02 61 C13.58 66.97 11.88 71.38 8 76 C5.78 77.72 3.54 78.94 1 80.12 C0.35 80.45 -0.3 80.77 -0.97 81.11 C-2.97 82.1 -4.98 83.05 -7 84 C-8.27 84.61 -9.53 85.22 -10.8 85.84 C-19.59 90 -19.59 90 -22 90 C-23.49 68.37 -20.74 52.05 -12.85 31.69 C-11.62 28.5 -10.46 25.28 -9.29 22.06 C-7.57 17.4 -5.84 12.74 -4.06 8.1 C-3.54 6.72 -3.54 6.72 -3 5.32 C-2 3 -2 3 0 0 Z " fill="#FBD0D2" transform="translate(436,239)"/>
<path d="M0 0 C4.44 1.48 8.81 3.51 12 7 C12.12 10.5 12.12 10.5 12 14 C14.92 17.93 17.79 19.44 22.3 21.29 C28.87 24.17 34.78 27.01 39 33 C42.23 42.95 40.52 54.9 39.42 65.12 C39.17 67.41 38.97 69.7 38.85 72 C38.72 74.42 38.72 74.42 38 78 C33.54 81.67 27.67 82.59 22.19 83.95 C20.62 84.35 20.62 84.35 19.02 84.75 C16.81 85.31 14.6 85.86 12.39 86.41 C9.01 87.25 5.63 88.11 2.26 88.97 C0.11 89.51 -2.04 90.04 -4.19 90.58 C-5.2 90.84 -6.2 91.09 -7.24 91.36 C-8.19 91.59 -9.13 91.82 -10.11 92.06 C-10.93 92.27 -11.76 92.47 -12.61 92.68 C-15.37 93.05 -17.34 92.78 -20 92 C-22.46 89.97 -22.46 89.97 -24.81 87.5 C-25.6 86.69 -26.39 85.87 -27.21 85.03 C-29 83 -29 83 -29 82 C-27.83 81.9 -26.66 81.8 -25.45 81.7 C-12.41 80.51 -1.32 79.05 8 69 C14.51 61.08 15.66 51.82 15.4 41.83 C14.73 35.41 12.55 29.87 10 24 C9.6 23.06 9.2 22.13 8.78 21.16 C6.17 15.09 3.53 9.04 0.84 3 C0 1 0 1 0 0 Z " fill="#FAB2B8" transform="translate(153,329)"/>
<path d="M0 0 C5.61 0 11.22 0 17 0 C19.79 33.61 19.79 33.61 15.46 41.98 C11.37 46.51 6.21 49.03 0.75 51.59 C-4.04 54.04 -8.1 57.44 -12.31 60.75 C-13.98 62 -15.64 63.25 -17.31 64.49 C-20.27 66.69 -23.2 68.92 -26.12 71.17 C-27.35 72.09 -28.58 73.02 -29.81 73.94 C-30.85 74.73 -31.89 75.52 -32.96 76.34 C-39.01 79.64 -44.74 77.76 -51 76 C-51 75.34 -51 74.68 -51 74 C-49.14 72.54 -47.27 71.2 -45.31 69.88 C-38.87 65.39 -32.6 60.71 -26.38 55.94 C-25.02 54.9 -25.02 54.9 -23.64 53.85 C-20.4 51.37 -17.16 48.89 -13.92 46.4 C-12.22 45.1 -10.52 43.8 -8.81 42.5 C-7.91 41.81 -7.01 41.12 -6.08 40.41 C-4 39 -4 39 -2 39 C-0.76 35.27 -0.77 31.73 -0.68 27.83 C-0.66 27.04 -0.64 26.24 -0.62 25.42 C-0.56 22.89 -0.5 20.35 -0.44 17.81 C-0.39 16.09 -0.35 14.37 -0.31 12.65 C-0.2 8.43 -0.1 4.22 0 0 Z " fill="#FAB2B8" transform="translate(389,393)"/>
<path d="M0 0 C1.07 0.6 2.14 1.2 3.25 1.81 C8.57 4.5 14.2 5.72 20 7 C2.97 24.58 2.97 24.58 -8.4 25.11 C-9.22 25.11 -10.03 25.1 -10.86 25.1 C-12.19 25.09 -12.19 25.09 -13.55 25.09 C-14.46 25.08 -15.37 25.07 -16.31 25.06 C-17.24 25.06 -18.18 25.05 -19.13 25.05 C-21.42 25.04 -23.71 25.02 -26 25 C-25.27 24.28 -24.55 23.55 -23.8 22.8 C-22.06 21.07 -20.33 19.32 -18.61 17.57 C-14.11 13.02 -9.57 8.62 -4.69 4.47 C-3.05 3.05 -1.52 1.55 0 0 Z " fill="#786B77" transform="translate(298,472)"/>
</svg>
