<?xml version="1.0" encoding="UTF-8"?>
<!-- Generator: visioncortex VTracer 0.6.4 -->
<svg version="1.1" xmlns="http://www.w3.org/2000/svg" width="512" height="512">
<path d="M0 0 C1.09 -0.03 2.18 -0.07 3.3 -0.1 C10.62 -0.14 16.26 1.2 22.31 5.44 C25.81 9.05 28.47 12.98 30.98 17.32 C34.98 24.18 37.81 27.02 45.31 29.44 C55.45 33.32 62.66 36.26 67.39 46.57 C70.4 55.96 68.24 64.7 64.31 73.44 C64.94 73.96 65.57 74.48 66.22 75.02 C76.32 83.7 82.83 93.36 88.31 105.44 C88.74 106.33 89.17 107.22 89.61 108.14 C92.13 113.75 92.82 117.42 91.31 123.44 C90.65 124.1 89.99 124.76 89.31 125.44 C89.5 128.34 89.5 128.34 90.31 131.44 C90.52 132.34 90.73 133.25 90.94 134.19 C92.97 137.52 95.65 137.43 99.31 138.44 C103.39 142.47 104.83 147.05 106.5 152.38 C106.76 153.16 107.02 153.95 107.29 154.76 C112.5 170.86 110.5 187.11 107.5 203.43 C107.21 205.09 106.92 206.74 106.64 208.39 C105.89 212.68 105.12 216.97 104.34 221.26 C103.11 228.15 101.9 235.04 100.69 241.93 C100.26 244.31 99.84 246.69 99.41 249.07 C96.52 263.53 96.52 263.53 96.88 278.15 C97.03 279.15 97.19 280.15 97.34 281.18 C97.52 282.23 97.69 283.29 97.88 284.38 C98.05 285.51 98.23 286.65 98.41 287.82 C99.39 294 100.43 300.16 101.5 306.33 C101.92 308.72 102.33 311.11 102.74 313.5 C103.27 316.6 103.82 319.69 104.38 322.78 C107.17 338.57 107.73 353.78 101.06 368.75 C98.47 374.79 99.4 379.57 101.34 385.69 C102.41 389.82 102.68 393.45 102.69 397.69 C102.71 398.37 102.74 399.06 102.76 399.77 C102.82 410.38 97.36 419.8 92.5 428.94 C91.97 429.95 91.43 430.95 90.88 431.99 C82.94 446.89 75.81 459.01 59.32 465.18 C48.45 468.45 37.74 466.43 27.69 461.75 C26.9 461.32 26.12 460.88 25.31 460.44 C25.15 461.61 24.98 462.79 24.81 464 C20.94 480.97 8.76 494.25 -5.42 503.53 C-22.52 513.5 -42.27 515.35 -61.4 510.59 C-66.19 509.29 -70.94 507.88 -75.69 506.44 C-95.37 500.56 -109.03 498.71 -128.94 505.12 C-129.9 505.43 -130.85 505.74 -131.83 506.05 C-133.73 506.67 -135.62 507.29 -137.51 507.92 C-157.13 514.37 -175.61 513.82 -194.47 505.16 C-201.88 501.4 -208.98 496.35 -214.04 489.65 C-216.76 487.65 -219.29 488.41 -222.56 488.75 C-223.91 488.87 -225.26 488.98 -226.61 489.09 C-227.29 489.15 -227.97 489.21 -228.67 489.27 C-231.74 489.52 -234.8 489.67 -237.88 489.75 C-238.9 489.79 -239.92 489.82 -240.98 489.86 C-244.44 489.32 -245.6 488.2 -247.69 485.44 C-247.69 484.45 -247.69 483.46 -247.69 482.44 C-251.98 483.43 -256.27 484.42 -260.69 485.44 C-260.36 486.1 -260.03 486.76 -259.69 487.44 C-259.24 490.72 -259.05 493.27 -260.68 496.24 C-265.22 502 -272.34 507.2 -279.69 508.44 C-290.69 509.28 -299.26 508.25 -308 501.25 C-314.87 494.77 -317.77 486.2 -320.69 477.44 C-323.08 476.29 -325.49 475.5 -328.01 474.68 C-336.57 471.75 -344.02 466.29 -348.25 458.12 C-353.86 443.73 -349.5 430.13 -343.63 416.62 C-339.42 407.27 -334.64 398.8 -328.69 390.44 C-328.36 389.78 -328.03 389.12 -327.69 388.44 C-328.13 387.83 -328.58 387.23 -329.04 386.6 C-339.79 371.71 -344.35 355.35 -347.69 337.44 C-348.48 337.46 -349.27 337.48 -350.08 337.5 C-353.72 337.58 -357.36 337.64 -361 337.69 C-362.24 337.72 -363.49 337.75 -364.77 337.79 C-374.99 337.9 -384.5 336.48 -392.19 329.21 C-399.05 321.08 -400.56 312.84 -399.69 302.44 C-397.4 291.81 -389.39 285.28 -381.1 278.92 C-377.26 274.89 -377.47 270 -377.38 264.75 C-376.95 255.16 -374.43 248.74 -367.38 242 C-364.4 239.49 -361.99 238.03 -358.25 237 C-354.63 235.91 -354.63 235.91 -353.95 233.63 C-353.75 232.52 -353.75 232.52 -353.55 231.4 C-353.4 230.58 -353.25 229.77 -353.09 228.94 C-352.96 228.11 -352.82 227.29 -352.69 226.44 C-352.57 225.71 -352.45 224.98 -352.32 224.23 C-351.98 222.01 -351.66 219.78 -351.36 217.55 C-351.11 215.87 -350.87 214.2 -350.62 212.52 C-350.25 209.92 -349.88 207.33 -349.52 204.74 C-347.41 189.59 -344.46 176 -336.14 162.93 C-334.33 159.85 -334.33 159.85 -333.69 156.44 C-334.61 154.03 -335.59 151.86 -336.77 149.58 C-337.09 148.92 -337.42 148.26 -337.76 147.58 C-338.81 145.46 -339.87 143.36 -340.94 141.25 C-352.26 118.72 -352.26 118.72 -352 107 C-351.99 106.17 -351.98 105.34 -351.97 104.49 C-351.65 89.82 -351.65 89.82 -348.28 85.73 C-346.19 84.03 -344.32 83.79 -341.69 83.44 C-341.61 82.61 -341.52 81.79 -341.44 80.94 C-340.52 76.67 -338.77 73.25 -336.69 69.44 C-337.02 69.11 -337.35 68.78 -337.69 68.44 C-338.16 64.35 -338.24 62.21 -335.81 58.81 C-328.38 53.16 -320.82 50.69 -311.75 48.96 C-304.44 47.47 -299.97 43.98 -294.94 38.5 C-286.79 30.2 -277.43 26.53 -265.94 26.06 C-258.41 26.21 -251.59 28.24 -245.03 31.93 C-233.31 38.4 -219.82 38.63 -206.69 39.44 C-205.74 39.5 -204.79 39.56 -203.81 39.62 C-198.49 39.81 -195.32 39.3 -190.81 36.19 C-176.82 27.35 -161.01 26.38 -144.84 25.43 C-142.82 25.31 -140.8 25.18 -138.79 25.05 C-120.71 23.92 -103.99 23.55 -87.21 31.55 C-84.81 32.56 -84.81 32.56 -82.61 32.42 C-79.67 30.92 -78.37 28.64 -76.5 25.94 C-68.04 14.22 -58.38 5.32 -43.69 2.44 C-39.28 1.91 -34.87 1.6 -30.44 1.31 C-29.17 1.23 -27.9 1.15 -26.59 1.07 C-17.73 0.54 -8.87 0.15 0 0 Z " fill="#6B5D68" transform="translate(400.6875,-0.4375)"/>
<path d="M0 0 C1.09 -0.03 2.18 -0.07 3.3 -0.1 C10.62 -0.14 16.26 1.2 22.31 5.44 C25.81 9.05 28.47 12.98 30.98 17.32 C34.98 24.18 37.81 27.02 45.31 29.44 C55.45 33.32 62.66 36.26 67.39 46.57 C70.4 55.96 68.24 64.7 64.31 73.44 C64.94 73.96 65.57 74.48 66.22 75.02 C76.32 83.7 82.83 93.36 88.31 105.44 C88.74 106.33 89.17 107.22 89.61 108.14 C92.11 113.72 92.99 117.47 91.31 123.44 C89.69 125.5 89.69 125.5 87.31 126.44 C81.29 126.23 81.29 126.23 78.71 124.14 C77.16 122.25 76.38 120.59 75.52 118.3 C75.2 117.5 74.89 116.7 74.56 115.87 C74.07 114.61 74.07 114.61 73.56 113.31 C70.65 106.14 67.7 100.1 62.31 94.44 C61.82 93.83 61.32 93.23 60.81 92.6 C53.34 84.05 39.81 78.31 28.59 77.16 C25.69 77.05 22.8 77.02 19.89 77.03 C18.3 77.01 18.3 77.01 16.67 77 C13.3 76.96 9.93 76.95 6.56 76.94 C-22.79 76.84 -43.2 69.61 -69.5 57.31 C-94.15 45.2 -94.15 45.2 -120.94 41.19 C-122.84 41.2 -122.84 41.2 -124.78 41.21 C-133.64 41.3 -142.47 41.64 -151.31 42.25 C-152.39 42.32 -153.48 42.39 -154.59 42.46 C-163.78 43.18 -172.51 45 -180.81 49.12 C-181.72 49.56 -182.63 50 -183.57 50.45 C-192.14 55.92 -197.72 62.75 -203.12 71.25 C-204.51 73.37 -205.9 75.5 -207.29 77.62 C-208.38 79.31 -209.47 81 -210.56 82.69 C-213.66 87.49 -216.78 92.29 -219.92 97.06 C-221.03 98.76 -222.12 100.47 -223.22 102.18 C-237.81 124.41 -260.66 134.04 -283.69 145.44 C-311.91 158.84 -311.91 158.84 -328.69 184.44 C-329.2 185.82 -329.2 185.82 -329.73 187.22 C-330.81 190.84 -331.29 194.39 -331.69 198.12 C-332.32 203.65 -333.13 209.09 -334.18 214.55 C-335.22 220.48 -335.93 226.47 -336.69 232.44 C-335.25 232 -335.25 232 -333.79 231.56 C-323.43 228.54 -314.71 226.28 -304.44 230.94 C-295.38 235.96 -290.57 242.56 -287.69 252.44 C-287.4 254.08 -287.13 255.73 -286.88 257.38 C-285.78 263.66 -282.24 268.26 -278.69 273.44 C-274.1 280.81 -272.86 286.76 -273.69 295.44 C-276.33 305.47 -281.78 311.32 -290.38 316.62 C-291.11 317.09 -291.84 317.55 -292.6 318.03 C-294.95 319.51 -297.32 320.98 -299.69 322.44 C-300.5 322.94 -301.31 323.44 -302.14 323.96 C-304.55 325.46 -306.96 326.95 -309.38 328.44 C-310.12 328.89 -310.86 329.35 -311.62 329.82 C-313.63 331.05 -315.66 332.25 -317.69 333.44 C-318.68 334.04 -319.68 334.63 -320.71 335.25 C-324.61 336.8 -327.51 336.65 -331.69 336.44 C-330.64 340.4 -329.57 344.36 -328.5 348.31 C-328.21 349.42 -327.92 350.53 -327.62 351.67 C-323.74 365.83 -317.42 378.49 -304.77 386.69 C-295.75 391.8 -286.2 395.91 -276.72 400.06 C-273.81 401.33 -270.9 402.62 -268 403.91 C-265.87 404.85 -263.74 405.77 -261.6 406.68 C-236.74 417.57 -226.12 435.46 -214.42 458.99 C-206.34 475.18 -196.74 488.03 -178.86 494.05 C-163 498.48 -148.12 494.4 -133.27 488.77 C-116.29 482.55 -97.93 481.89 -80.7 487.77 C-76.49 489.17 -72.21 490.34 -67.94 491.56 C-67.03 491.82 -66.12 492.08 -65.18 492.35 C-47.64 497.33 -31.5 498.89 -14.99 489.98 C-12.79 488.56 -10.74 487.06 -8.69 485.44 C-8.09 485.01 -7.49 484.58 -6.87 484.14 C2.17 477.25 6.65 467.63 9.94 457.06 C10.21 456.21 10.48 455.35 10.76 454.47 C12.2 449.46 12.71 446.3 10.31 441.44 C6.32 434.29 1.47 431.26 -6.07 428.59 C-16.74 424.72 -24.13 418.31 -29.69 408.44 C-30.29 407.39 -30.88 406.33 -31.5 405.25 C-37.13 391.91 -33.5 375.5 -28.69 362.44 C-27.04 359.01 -25.2 356.27 -22.69 353.44 C-22.19 352.82 -21.69 352.2 -21.17 351.57 C-15.94 345.67 -6.81 339.85 1.23 339.31 C1.93 339.31 2.64 339.31 3.37 339.3 C4.15 339.3 4.93 339.3 5.73 339.3 C6.54 339.3 7.35 339.31 8.19 339.31 C8.99 339.31 9.79 339.3 10.62 339.3 C14.67 339.31 18.35 339.54 22.31 340.44 C28.45 340.96 33.96 340.4 39.94 338.94 C52.74 336.02 65.63 335.67 77.31 342.44 C80.18 344.71 82.81 347.05 85.39 349.64 C87.12 351.66 87.12 351.66 89.31 351.44 C90.09 335.63 87.67 320.83 84.81 305.31 C80.67 282.75 79.33 264.32 83.45 241.72 C84.01 238.62 84.56 235.52 85.1 232.41 C86.66 223.48 88.28 214.57 89.96 205.66 C95.1 178.29 95.1 178.29 88.62 151.79 C87.27 148.33 86.89 146.11 87.31 142.44 C89.38 139.5 89.38 139.5 92.31 137.44 C95.88 137.31 95.88 137.31 99.31 138.44 C103.37 142.49 104.82 147.04 106.5 152.38 C106.76 153.16 107.02 153.95 107.29 154.76 C112.5 170.86 110.5 187.11 107.5 203.43 C107.21 205.09 106.92 206.74 106.64 208.39 C105.89 212.68 105.12 216.97 104.34 221.26 C103.11 228.15 101.9 235.04 100.69 241.93 C100.26 244.31 99.84 246.69 99.41 249.07 C96.52 263.53 96.52 263.53 96.88 278.15 C97.03 279.15 97.19 280.15 97.34 281.18 C97.52 282.23 97.69 283.29 97.88 284.38 C98.05 285.51 98.23 286.65 98.41 287.82 C99.39 294 100.43 300.16 101.5 306.33 C101.92 308.72 102.33 311.11 102.74 313.5 C103.27 316.6 103.82 319.69 104.38 322.78 C107.17 338.57 107.73 353.78 101.06 368.75 C98.47 374.79 99.4 379.57 101.34 385.69 C102.41 389.82 102.68 393.45 102.69 397.69 C102.71 398.37 102.74 399.06 102.76 399.77 C102.82 410.38 97.36 419.8 92.5 428.94 C91.97 429.95 91.43 430.95 90.88 431.99 C82.94 446.89 75.81 459.01 59.32 465.18 C48.45 468.45 37.74 466.43 27.69 461.75 C26.9 461.32 26.12 460.88 25.31 460.44 C25.15 461.61 24.98 462.79 24.81 464 C20.94 480.97 8.76 494.25 -5.42 503.53 C-22.52 513.5 -42.27 515.35 -61.4 510.59 C-66.19 509.29 -70.94 507.88 -75.69 506.44 C-95.37 500.56 -109.03 498.71 -128.94 505.12 C-129.9 505.43 -130.85 505.74 -131.83 506.05 C-133.73 506.67 -135.62 507.29 -137.51 507.92 C-157.13 514.37 -175.61 513.82 -194.47 505.16 C-201.88 501.4 -208.98 496.35 -214.04 489.65 C-216.76 487.65 -219.29 488.41 -222.56 488.75 C-223.91 488.87 -225.26 488.98 -226.61 489.09 C-227.29 489.15 -227.97 489.21 -228.67 489.27 C-231.74 489.52 -234.8 489.67 -237.88 489.75 C-238.9 489.79 -239.92 489.82 -240.98 489.86 C-244.44 489.32 -245.6 488.2 -247.69 485.44 C-247.69 484.45 -247.69 483.46 -247.69 482.44 C-251.98 483.43 -256.27 484.42 -260.69 485.44 C-260.36 486.1 -260.03 486.76 -259.69 487.44 C-259.24 490.72 -259.05 493.27 -260.68 496.24 C-265.22 502 -272.34 507.2 -279.69 508.44 C-290.69 509.28 -299.26 508.25 -308 501.25 C-314.87 494.77 -317.77 486.2 -320.69 477.44 C-323.08 476.29 -325.49 475.5 -328.01 474.68 C-336.57 471.75 -344.02 466.29 -348.25 458.12 C-353.86 443.73 -349.5 430.13 -343.63 416.62 C-339.42 407.27 -334.64 398.8 -328.69 390.44 C-328.36 389.78 -328.03 389.12 -327.69 388.44 C-328.13 387.83 -328.58 387.23 -329.04 386.6 C-339.79 371.71 -344.35 355.35 -347.69 337.44 C-348.48 337.46 -349.27 337.48 -350.08 337.5 C-353.72 337.58 -357.36 337.64 -361 337.69 C-362.24 337.72 -363.49 337.75 -364.77 337.79 C-374.99 337.9 -384.5 336.48 -392.19 329.21 C-399.05 321.08 -400.56 312.84 -399.69 302.44 C-397.4 291.81 -389.39 285.28 -381.1 278.92 C-377.26 274.89 -377.47 270 -377.38 264.75 C-376.95 255.16 -374.43 248.74 -367.38 242 C-364.4 239.49 -361.99 238.03 -358.25 237 C-354.63 235.91 -354.63 235.91 -353.95 233.63 C-353.75 232.52 -353.75 232.52 -353.55 231.4 C-353.4 230.58 -353.25 229.77 -353.09 228.94 C-352.96 228.11 -352.82 227.29 -352.69 226.44 C-352.57 225.71 -352.45 224.98 -352.32 224.23 C-351.98 222.01 -351.66 219.78 -351.36 217.55 C-351.11 215.87 -350.87 214.2 -350.62 212.52 C-350.25 209.92 -349.88 207.33 -349.52 204.74 C-347.41 189.59 -344.46 176 -336.14 162.93 C-334.33 159.85 -334.33 159.85 -333.69 156.44 C-334.61 154.03 -335.59 151.86 -336.77 149.58 C-337.09 148.92 -337.42 148.26 -337.76 147.58 C-338.81 145.46 -339.87 143.36 -340.94 141.25 C-352.26 118.72 -352.26 118.72 -352 107 C-351.99 106.17 -351.98 105.34 -351.97 104.49 C-351.65 89.82 -351.65 89.82 -348.28 85.73 C-346.19 84.03 -344.32 83.79 -341.69 83.44 C-341.61 82.61 -341.52 81.79 -341.44 80.94 C-340.52 76.67 -338.77 73.25 -336.69 69.44 C-337.02 69.11 -337.35 68.78 -337.69 68.44 C-338.16 64.35 -338.24 62.21 -335.81 58.81 C-328.38 53.16 -320.82 50.69 -311.75 48.96 C-304.44 47.47 -299.97 43.98 -294.94 38.5 C-286.79 30.2 -277.43 26.53 -265.94 26.06 C-258.41 26.21 -251.59 28.24 -245.03 31.93 C-233.31 38.4 -219.82 38.63 -206.69 39.44 C-205.74 39.5 -204.79 39.56 -203.81 39.62 C-198.49 39.81 -195.32 39.3 -190.81 36.19 C-176.82 27.35 -161.01 26.38 -144.84 25.43 C-142.82 25.31 -140.8 25.18 -138.79 25.05 C-120.71 23.92 -103.99 23.55 -87.21 31.55 C-84.81 32.56 -84.81 32.56 -82.61 32.42 C-79.67 30.92 -78.37 28.64 -76.5 25.94 C-68.04 14.22 -58.38 5.32 -43.69 2.44 C-39.28 1.91 -34.87 1.6 -30.44 1.31 C-29.17 1.23 -27.9 1.15 -26.59 1.07 C-17.73 0.54 -8.87 0.15 0 0 Z " fill="#010100" transform="translate(400.6875,-0.4375)"/>
<path d="M0 0 C1.83 -0.04 1.83 -0.04 3.7 -0.09 C17.84 -0.18 29.12 5.43 41.66 11.31 C45.75 13.23 49.85 15.12 53.95 17.02 C54.75 17.39 55.56 17.76 56.38 18.15 C63.04 21.23 69.72 24.25 76.44 27.19 C77.31 27.57 78.18 27.96 79.07 28.36 C90.81 33.45 101.57 35.44 114.34 35.45 C116.53 35.47 118.72 35.49 120.91 35.51 C124.32 35.54 127.73 35.56 131.14 35.56 C151.3 35.58 168.11 37.55 183.44 51.94 C191.15 60.02 195.53 69.24 199.21 79.7 C200.09 82.42 200.09 82.42 202.25 84.31 C203.36 84.35 204.48 84.39 205.62 84.44 C209.25 85.31 209.25 85.31 210.56 86.98 C211.62 89.06 212.47 91.11 213.25 93.31 C213.58 94.22 213.91 95.13 214.25 96.06 C214.25 96.81 214.25 97.55 214.25 98.31 C212.92 99.65 211.58 100.98 210.25 102.31 C209.3 107.3 211.23 111.25 213.18 115.75 C220.74 133.86 215.1 155.06 211.79 173.64 C211.2 176.96 210.64 180.28 210.07 183.6 C206.59 203.81 206.59 203.81 204.82 212.19 C200.83 231.52 204.88 249.63 208.4 268.74 C213.68 297.6 213.68 297.6 212.25 311.31 C211.59 311.97 210.93 312.63 210.25 313.31 C209.79 312.79 209.33 312.27 208.85 311.74 C203.84 306.38 198.99 303.13 192.25 300.31 C191.3 299.9 190.35 299.49 189.38 299.06 C184.4 297.87 179.35 297.63 174.25 297.31 C172.02 286.57 169.9 275.81 168 265 C167.83 264.06 167.65 263.12 167.47 262.15 C164.87 246.98 166.8 233.27 169.75 218.38 C170.09 216.61 170.43 214.85 170.76 213.09 C171.58 208.83 172.41 204.57 173.25 200.31 C172.36 201.04 172.36 201.04 171.46 201.77 C168.15 204.07 166.19 203.99 162.25 203.31 C158.29 200.37 156.45 197.48 155.62 192.62 C156.25 189.31 156.25 189.31 157.81 186.81 C160.25 185.31 160.25 185.31 163.62 185.12 C168.4 186.69 170.4 189.31 173.25 193.31 C175.71 187.71 176.53 181.95 177.54 175.94 C177.87 173.98 178.22 172.01 178.57 170.05 C182.77 145.16 175.92 126.67 166.67 103.82 C165.34 100.54 164.04 97.25 162.74 93.96 C161.97 92.04 161.21 90.11 160.44 88.19 C160.1 87.33 159.77 86.47 159.42 85.59 C153.37 70.65 144.53 59.11 130.25 51.31 C129.52 50.91 128.79 50.51 128.04 50.1 C113.65 43 97.49 43.78 81.88 43.62 C79.58 43.59 77.28 43.56 74.98 43.52 C69.41 43.44 63.83 43.37 58.25 43.31 C57.8 44.26 57.34 45.21 56.88 46.19 C55.25 49.31 55.25 49.31 53.25 51.31 C47.2 52.3 43.95 50.25 39.17 46.92 C37.25 45.31 37.25 45.31 35.25 42.31 C35.17 39.98 35.16 37.64 35.25 35.31 C34.26 34.87 33.28 34.44 32.26 33.99 C29.33 32.68 26.4 31.38 23.46 30.08 C20.15 28.61 16.83 27.13 13.51 25.66 C-0.47 19.46 -0.47 19.46 -7.24 16.32 C-8.13 15.9 -9.03 15.49 -9.95 15.07 C-11.5 14.35 -13.04 13.62 -14.58 12.88 C-24.48 8.3 -34.1 8.04 -44.88 8.19 C-46.12 8.2 -47.36 8.21 -48.64 8.21 C-51.68 8.24 -54.71 8.27 -57.75 8.31 C-46.19 -3.25 -15.28 0.2 0 0 Z " fill="#564C55" transform="translate(278.75,39.6875)"/>
<path d="M0 0 C8.27 7.3 14.51 21.84 15.61 32.78 C16.15 49.84 5.74 65.15 -5.27 77.63 C-8.25 80.7 -11.82 82.29 -15.66 84.06 C-17.17 84.76 -17.17 84.76 -18.71 85.48 C-28.67 89.73 -36.81 90.85 -47.04 86.88 C-54.93 83.45 -59.47 78.41 -64.23 71.5 C-68.69 65.03 -72.84 60.83 -79.98 57.25 C-89.81 51.94 -95.78 45.98 -99.27 35.18 C-100.88 26.45 -100.59 17.6 -95.66 10.06 C-90.03 2.17 -82.4 -4.2 -72.66 -5.94 C-68.48 -6.21 -64.54 -6.07 -60.39 -5.44 C-56.42 -4.91 -52.53 -4.75 -48.54 -4.75 C-47.43 -4.75 -47.43 -4.75 -46.29 -4.75 C-40.65 -4.8 -35.28 -5.52 -29.71 -6.47 C-18.61 -8.17 -9.25 -6.72 0 0 Z " fill="#020201" transform="translate(430.6640625,127.9375)"/>
<path d="M0 0 C10.25 5.43 20.38 6.6 31.83 7.44 C34.04 7.67 36.06 8.09 38.19 8.69 C36.72 12.84 34.67 16.17 32.19 19.81 C31.29 21.13 30.4 22.44 29.51 23.76 C29 24.51 28.49 25.27 27.96 26.05 C26.27 28.57 24.6 31.11 22.94 33.65 C21.36 36.06 19.78 38.46 18.19 40.87 C17.4 42.07 16.62 43.27 15.84 44.47 C5.62 60.19 -5.68 67.89 -22.45 76.14 C-24.24 77.02 -26.02 77.91 -27.8 78.8 C-30.26 80.02 -32.73 81.23 -35.19 82.45 C-39.52 84.59 -43.85 86.74 -48.18 88.89 C-50.47 90.03 -52.77 91.16 -55.07 92.3 C-60.42 94.95 -65.68 97.65 -70.81 100.69 C-72.77 96.65 -74.73 92.61 -76.68 88.57 C-77.35 87.2 -78.01 85.83 -78.68 84.45 C-79.64 82.48 -80.6 80.5 -81.55 78.52 C-81.85 77.91 -82.15 77.3 -82.45 76.68 C-87.09 67.07 -87.09 67.07 -87 61.12 C-86.99 60.08 -86.98 59.04 -86.96 57.96 C-86.77 53.7 -86.25 49.5 -85.64 45.28 C-85.57 42.53 -85.57 42.53 -87.67 40.41 C-89.69 38.66 -89.69 38.66 -91.81 37.69 C-91.35 31.98 -89.87 28.53 -86.81 23.69 C-84.96 24.12 -84.96 24.12 -83.06 24.56 C-77.39 25.22 -73.97 22.93 -69.12 20.23 C-65.46 18.52 -62.18 17.85 -58.19 17.19 C-51.25 16 -46.56 13.61 -40.81 9.69 C-40.1 9.38 -39.4 9.07 -38.67 8.75 C-36.32 7.41 -35.93 6.11 -34.81 3.69 C-33.3 2.05 -33.3 2.05 -31.56 0.56 C-31 0.06 -30.44 -0.43 -29.86 -0.95 C-20.07 -7.48 -9.61 -5.11 0 0 Z " fill="#FDA955" transform="translate(150.8125,46.3125)"/>
<path d="M0 0 C6.83 5.43 9.4 11.3 11.93 19.54 C12.38 20.9 12.83 22.27 13.29 23.64 C16.98 35.07 19.29 43.67 13.62 54.91 C12.49 57.01 11.35 59.1 10.2 61.18 C8.82 63.74 7.54 66.34 6.27 68.95 C-3.94 89.68 -3.94 89.68 -13.94 93.68 C-20.96 95.59 -28.51 95.83 -35.07 92.41 C-41.05 88.49 -43.94 83.8 -47.32 77.66 C-53.38 67.24 -60.77 62.76 -71.69 58.32 C-79.6 55.09 -84.43 51.13 -88.16 43.22 C-91.39 33.65 -89.04 21.17 -85 12.15 C-81.36 5.83 -76.12 0.72 -69.07 -1.46 C-65.58 -1.7 -65.58 -1.7 -61.76 -1.65 C-61.09 -1.65 -60.42 -1.64 -59.73 -1.63 C-56.41 -1.58 -53.16 -1.44 -49.88 -0.96 C-42.01 0.07 -34.87 -0.14 -27.13 -1.96 C-17.68 -4.14 -8.48 -5.58 0 0 Z " fill="#FDA955" transform="translate(471.0703125,355.46484375)"/>
<path d="M0 0 C4.24 1.6 8.23 3.59 12.26 5.65 C17.93 8.51 23.63 11.25 29.43 13.85 C30.13 14.16 30.82 14.48 31.54 14.8 C34.36 16.06 37.19 17.32 40.03 18.58 C62.41 28.52 62.41 28.52 69 36 C69.51 36.53 70.01 37.05 70.54 37.6 C75.64 43.06 78.93 48.96 82.25 55.62 C82.77 56.64 83.28 57.65 83.81 58.69 C84.79 60.62 85.77 62.55 86.74 64.49 C87.49 65.99 88.25 67.48 89.03 68.98 C91 72.79 91 72.79 91 75 C90.16 75.07 90.16 75.07 89.3 75.14 C86.76 75.35 84.23 75.58 81.69 75.81 C80.81 75.88 79.93 75.95 79.02 76.03 C78.17 76.11 77.32 76.19 76.45 76.27 C75.67 76.34 74.89 76.41 74.08 76.48 C71.56 77.11 70.6 77.98 69 80 C68.29 82.1 68.29 82.1 68 84 C65.73 84.72 63.46 85.43 61.19 86.12 C60.54 86.33 59.9 86.54 59.24 86.75 C57.36 87.32 57.36 87.32 54 88 C52.51 87.01 52.51 87.01 51 86 C48.22 85.25 48.22 85.25 45 86 C42.82 87.64 40.87 89.44 38.88 91.31 C35.59 94.28 32.96 94.89 28.62 95.38 C22.99 94.79 19.53 92.8 15.88 88.5 C13.69 84.41 11.99 80.23 10.34 75.9 C6.6 67.83 0.19 64.3 -7.69 60.94 C-12.56 58.83 -15.89 56.73 -18.81 52.19 C-22.23 43.01 -17.82 33.42 -14.09 24.93 C-10.05 16.2 -5.4 7.96 0 0 Z " fill="#FDA955" transform="translate(85,398)"/>
<path d="M0 0 C7.15 4.97 10.4 14.85 13.86 22.6 C14.45 23.9 15.05 25.2 15.67 26.49 C20.43 36.46 21.59 43.85 19.88 55 C19.7 56.33 19.52 57.66 19.35 58.99 C18.89 62.35 18.38 65.7 17.83 69.05 C17.5 71.09 17.18 73.14 16.87 75.19 C16.65 76.51 16.44 77.84 16.23 79.16 C16.04 80.33 15.85 81.5 15.66 82.71 C14.21 88.79 12.01 92.44 6.88 96 C3.77 97.55 1.31 97.29 -2.12 97 C-7.83 94.26 -10.11 90.27 -13.12 85 C-17.57 77.36 -21.78 73.26 -29.94 69.81 C-33.01 68.97 -33.01 68.97 -35.73 68.62 C-42.08 67.67 -45.7 66.76 -50.12 62 C-51.94 58.98 -52.47 56.46 -52.76 52.96 C-52.84 51.97 -52.93 50.99 -53.01 49.98 C-53.09 48.93 -53.17 47.89 -53.25 46.81 C-53.33 45.74 -53.41 44.67 -53.5 43.57 C-53.96 37.18 -54.37 30.78 -54.5 24.38 C-54.53 23.08 -54.56 21.79 -54.59 20.46 C-53.9 15.35 -51.81 12.41 -47.89 9.14 C-44.2 7.62 -40.79 7.77 -36.88 7.81 C-28.83 7.68 -22.89 5.68 -15.87 1.79 C-10.39 -1.2 -6.15 -1.97 0 0 Z " fill="#FCA955" transform="translate(229.125,218)"/>
<path d="M0 0 C4.56 2.62 6.14 4.64 7.69 9.62 C8.38 12.26 8.98 14.89 9.49 17.57 C11.05 24.71 14.19 29.79 18.6 35.52 C22.04 40.22 22.58 43.18 22 49 C18.82 56.59 10.45 60.78 3.75 64.94 C2.56 65.69 2.56 65.69 1.34 66.45 C-0.24 67.44 -1.82 68.41 -3.4 69.38 C-5.05 70.41 -6.67 71.47 -8.26 72.58 C-14.76 76.94 -19.75 77.87 -27.48 77.73 C-28.54 77.73 -29.6 77.73 -30.69 77.73 C-32.92 77.72 -35.14 77.71 -37.36 77.67 C-40.76 77.62 -44.15 77.63 -47.54 77.64 C-49.71 77.63 -51.88 77.62 -54.05 77.6 C-55.06 77.6 -56.07 77.61 -57.11 77.61 C-63.03 77.49 -66.48 76.93 -71 73 C-73.91 68.78 -73.85 63.92 -73 59 C-70.66 54.6 -66.93 51.89 -62.94 49.06 C-56.94 44.77 -53.93 39.04 -52 32 C-51.76 28.63 -51.63 25.3 -51.61 21.92 C-51.43 16.82 -50.23 13.93 -47 10 C-43.62 6.9 -40.37 6.17 -35.93 5.21 C-35.26 5.06 -34.58 4.91 -33.89 4.76 C-31.74 4.29 -29.59 3.83 -27.44 3.38 C-25.28 2.91 -23.13 2.44 -20.98 1.97 C-19.03 1.54 -17.07 1.13 -15.12 0.71 C-9.46 -0.58 -5.76 -1.39 0 0 Z " fill="#FCA955" transform="translate(90,244)"/>
<path d="M0 0 C14.26 6.41 18.49 18.1 24.15 31.73 C24.88 33.45 25.61 35.17 26.34 36.89 C32.6 51.65 34.1 62.22 30.56 78.2 C29.81 81.75 29.29 85.25 28.84 88.85 C25.37 113.14 25.37 113.14 14.77 121.91 C7.65 126.5 1.19 127.84 -7.23 126.91 C-17.03 124.28 -23.4 117.77 -28.41 109.23 C-29.03 108.13 -29.64 107.03 -30.27 105.9 C-32.9 101.89 -35.24 99.38 -39.99 98.26 C-40.95 98.17 -41.92 98.07 -42.91 97.98 C-51.39 96.77 -58.87 93.55 -64.65 87.05 C-70.63 78.96 -71.01 68.85 -71.48 59.16 C-71.55 57.91 -71.63 56.65 -71.71 55.36 C-72.09 48.85 -72.32 42.33 -72.4 35.8 C-72.41 34.61 -72.43 33.42 -72.45 32.2 C-71.96 25.03 -68.59 19.89 -63.48 15.04 C-56.29 9.42 -50.66 7.79 -41.66 7.66 C-34.74 7.56 -29.94 6.27 -23.91 2.85 C-15.77 -1.7 -9.13 -3.07 0 0 Z M-21.04 17.85 C-28.12 21.53 -34.1 22.8 -42.07 22.53 C-47.77 22.43 -51.1 23.96 -55.23 27.91 C-60.83 35.24 -57.09 52.86 -56.48 61.6 C-56.42 62.63 -56.35 63.66 -56.29 64.71 C-55.75 71.57 -54.45 75.77 -49.4 80.7 C-46.49 82.33 -43.75 82.78 -40.48 83.35 C-32.09 85.03 -25.8 87.17 -20.23 93.91 C-18.67 96.41 -17.18 98.93 -15.7 101.47 C-13.11 105.75 -10.25 110.44 -5.23 111.91 C-0.96 112.39 1.22 112.21 5.02 110.16 C9.9 106.18 11.29 102.87 12.21 96.73 C12.33 96.01 12.45 95.28 12.57 94.54 C12.83 92.92 13.08 91.3 13.34 89.67 C13.82 86.6 14.34 83.54 14.85 80.48 C15.22 78.25 15.59 76.02 15.96 73.79 C16.14 72.72 16.32 71.66 16.5 70.56 C16.67 69.54 16.83 68.52 17 67.47 C17.23 66.11 17.23 66.11 17.45 64.73 C18.26 57.61 17.35 52.91 14.45 46.5 C13.93 45.33 13.93 45.33 13.41 44.13 C12.68 42.49 11.95 40.86 11.21 39.22 C10.09 36.73 8.99 34.23 7.9 31.72 C7.19 30.12 6.48 28.53 5.76 26.93 C5.44 26.19 5.11 25.44 4.78 24.68 C2.78 20.31 0.93 17.58 -3.23 14.91 C-10.37 12.53 -14.86 14.43 -21.04 17.85 Z " fill="#020201" transform="translate(232.2265625,203.0859375)"/>
<path d="M0 0 C7.22 5.75 9.55 14.98 11.62 23.6 C12.48 31.58 7.41 37.94 3.15 44.25 C2.15 45.77 1.24 47.35 0.34 48.94 C-4.23 56.62 -10.84 60.05 -19 63 C-23.6 64 -27.95 63.29 -32.21 61.23 C-37.51 57.57 -41.33 51.97 -45.06 46.81 C-50.19 39.91 -56.41 35.94 -64.03 32.07 C-69.38 29.22 -72.09 25.72 -74 20 C-74.52 15.03 -74.57 11.14 -72.31 6.62 C-69.54 3.47 -66.77 0.89 -63 -1 C-60.35 -1.06 -57.72 -1.07 -55.06 -1.03 C-53.43 -1.01 -51.79 -1 -50.16 -0.99 C-47.59 -0.97 -45.02 -0.94 -42.45 -0.9 C-30.12 -0.63 -30.12 -0.63 -17.98 -2.53 C-11.52 -4.05 -5.74 -3.36 0 0 Z " fill="#FCA955" transform="translate(420,139)"/>
<path d="M0 0 C0.72 -0.01 1.44 -0.02 2.18 -0.03 C5.3 0.15 6.76 1.01 9.09 3.08 C11.56 6.45 13.62 10.05 15.72 13.66 C21.66 23.38 29.32 26.96 39.82 30.45 C45.62 32.51 45.62 32.51 48.14 35.58 C49.49 39.13 48.99 41.42 48.09 45.08 C46.53 48.52 46.53 48.52 45.09 51.08 C42.61 50.62 40.23 50.13 37.83 49.34 C26.79 45.88 15.17 46.62 3.72 46.58 C-17.77 46.51 -33.68 44.22 -53.16 34.95 C-54.76 34.2 -56.37 33.46 -57.98 32.71 C-68.03 28.02 -68.03 28.02 -71.91 26.08 C-67.19 15.94 -58.74 6.97 -48.24 2.94 C-40.64 0.98 -32.66 1.1 -24.85 0.83 C-23.04 0.75 -21.24 0.68 -19.43 0.6 C-12.95 0.32 -6.48 0.07 0 0 Z " fill="#FDA955" transform="translate(404.9091796875,14.920166015625)"/>
<path d="M0 0 C7.56 2.87 13.51 6.83 17.35 14.14 C18.79 20.47 16.08 27.03 14 33 C13.7 33.87 13.41 34.75 13.11 35.64 C7.83 49.02 -2.6 58.97 -15.48 64.97 C-21.29 67.35 -26.68 69.21 -33 69 C-32.2 67.68 -32.2 67.68 -31.39 66.32 C-25.88 57.03 -21.82 48.3 -19.71 37.63 C-16.73 22.71 -11.06 10.65 0 0 Z " fill="#564C55" transform="translate(396,428)"/>
<path d="M0 0 C1.75 0.14 3.5 0.29 5.25 0.44 C6.71 0.56 6.71 0.56 8.2 0.68 C10.56 0.95 12.72 1.35 15 2 C13.53 6.16 11.48 9.49 9 13.12 C8.11 14.44 7.22 15.75 6.32 17.07 C5.81 17.83 5.3 18.58 4.77 19.36 C3.08 21.88 1.41 24.42 -0.25 26.96 C-1.83 29.37 -3.41 31.78 -5 34.18 C-5.78 35.38 -6.57 36.58 -7.35 37.79 C-17.56 53.5 -28.87 61.21 -45.64 69.45 C-47.42 70.34 -49.21 71.22 -50.99 72.11 C-53.45 73.33 -55.91 74.55 -58.38 75.76 C-62.71 77.9 -67.04 80.05 -71.37 82.2 C-73.66 83.34 -75.96 84.48 -78.26 85.61 C-83.6 88.26 -88.86 90.96 -94 94 C-95.65 90.37 -97.3 86.74 -99 83 C-98.1 82.63 -97.19 82.26 -96.26 81.87 C-90.69 79.48 -85.28 76.74 -79.86 74.05 C-78.69 73.47 -77.53 72.89 -76.33 72.29 C-73.87 71.07 -71.41 69.85 -68.95 68.62 C-65.83 67.07 -62.71 65.52 -59.58 63.98 C-56.56 62.49 -53.55 60.99 -50.54 59.48 C-49.44 58.94 -48.33 58.39 -47.19 57.83 C-30.99 49.71 -22.19 40.29 -12.5 25.19 C-11.77 24.06 -11.04 22.94 -10.32 21.82 C-5.84 14.9 -1.41 7.96 3 1 C2.01 0.67 1.02 0.34 0 0 Z " fill="#FB9629" transform="translate(174,53)"/>
<path d="M0 0 C0.33 0.66 0.66 1.32 1 2 C2.67 2.34 4.33 2.67 6 3 C8.1 3.9 10.17 4.87 12.23 5.87 C13.44 6.45 14.65 7.03 15.86 7.61 C17.73 8.52 19.61 9.43 21.48 10.35 C37.08 17.99 52.06 18.96 69.21 19.14 C70.01 19.15 70.8 19.16 71.62 19.17 C76.5 19.23 76.5 19.23 81.38 19.25 C93.12 19.27 103 20.85 114 25 C114.5 23.52 114.5 23.52 115 22 C114.5 26.97 113.45 30.64 111 35 C108.52 34.54 106.14 34.05 103.74 33.26 C92.7 29.8 81.08 30.54 69.62 30.5 C48.13 30.43 32.23 28.14 12.75 18.88 C11.15 18.12 9.54 17.38 7.93 16.63 C-2.12 11.94 -2.12 11.94 -6 10 C-4.35 6.42 -2.22 3.25 0 0 Z " fill="#F99529" transform="translate(339,31)"/>
<path d="M0 0 C4.24 1.6 8.23 3.59 12.26 5.65 C17.93 8.51 23.63 11.25 29.43 13.85 C30.13 14.16 30.82 14.48 31.54 14.8 C34.36 16.06 37.19 17.32 40.03 18.58 C62.41 28.52 62.41 28.52 69 36 C69.51 36.53 70.01 37.05 70.54 37.6 C75.64 43.06 78.93 48.96 82.25 55.62 C82.77 56.64 83.28 57.65 83.81 58.69 C84.79 60.62 85.77 62.55 86.74 64.49 C87.49 65.99 88.25 67.48 89.03 68.98 C91 72.79 91 72.79 91 75 C87.04 75 83.08 75 79 75 C78.64 74.25 78.28 73.5 77.9 72.72 C76.53 69.9 75.16 67.09 73.78 64.28 C72.89 62.47 72.02 60.67 71.15 58.86 C62.15 40.61 48.62 34.52 30.69 26.5 C12.09 18.12 12.09 18.12 4.02 14.16 C2.38 13.35 2.38 13.35 0.7 12.53 C-2 11 -2 11 -5 8 C-3.35 5.36 -1.7 2.72 0 0 Z " fill="#FB9529" transform="translate(85,398)"/>
<path d="M0 0 C3.12 0.5 3.12 0.5 6.06 2.56 C8.12 5.5 8.12 5.5 8.38 8.69 C7.21 13.99 3.37 18.29 0.12 22.5 C4.26 27.48 8.63 32.07 13.27 36.58 C15.81 39.21 16.09 40.16 16.44 43.88 C16.12 47.5 16.12 47.5 14.5 49.94 C11.42 51.96 9.76 51.88 6.12 51.5 C3.81 49.99 3.81 49.99 1.56 47.81 C0.72 47 -0.13 46.19 -1 45.36 C-1.96 44.41 -2.92 43.45 -3.88 42.5 C-5.04 41.36 -6.21 40.22 -7.38 39.08 C-17.68 28.94 -17.68 28.94 -18.3 24.42 C-17.71 19.02 -15.28 16 -12.06 11.75 C-11.52 11 -10.97 10.24 -10.4 9.46 C-3.98 0.69 -3.98 0.69 0 0 Z " fill="#030203" transform="translate(266.875,84.5)"/>
<path d="M0 0 C4.44 1.31 4.44 1.31 6.38 4 C7.05 6.64 7.57 9.14 8 11.81 C8.12 12.51 8.24 13.21 8.37 13.93 C8.72 15.95 9.05 17.98 9.38 20 C9.65 21.62 9.65 21.62 9.92 23.28 C10.07 24.18 10.22 25.08 10.38 26 C10.58 27.22 10.79 28.43 11 29.69 C10.94 36.11 5.47 40.58 1.38 45 C0.74 45.76 0.11 46.51 -0.54 47.29 C-2.15 49.14 -3.58 50.65 -5.62 52 C-9.62 52.2 -11.53 51.95 -14.56 49.31 C-15.96 46.26 -15.99 44.34 -15.62 41 C-13.66 38.32 -13.66 38.32 -11.12 35.69 C-7.08 31.13 -7.08 31.13 -5.94 25.38 C-6.35 21.57 -7.27 17.85 -8.16 14.13 C-8.86 10.92 -9.06 8.27 -8.62 5 C-5.94 1.09 -4.8 0 0 0 Z " fill="#030203" transform="translate(308.625,291)"/>
<path d="M0 0 C4.04 0.39 5.55 1.3 8.25 4.31 C8.81 7.25 8.81 7.25 8.25 10.31 C5.62 14.02 2.68 16.81 -0.88 19.62 C-1.74 20.32 -2.61 21.02 -3.51 21.74 C-5.75 23.31 -5.75 23.31 -7.75 23.31 C-7.73 23.87 -7.71 24.42 -7.69 24.99 C-7.6 27.52 -7.55 30.04 -7.5 32.56 C-7.45 33.87 -7.45 33.87 -7.4 35.21 C-7.3 41.67 -7.3 41.67 -9.55 44.89 C-12.81 47 -14.95 46.92 -18.75 46.31 C-21.41 44.1 -22.59 42.28 -23.15 38.84 C-23.33 35.84 -23.34 32.88 -23.31 29.88 C-23.34 28.85 -23.36 27.83 -23.38 26.77 C-23.38 21.97 -23.24 19.1 -20.67 14.95 C-17.38 11.98 -14.04 9.17 -10.5 6.5 C-9.24 5.54 -7.99 4.57 -6.73 3.61 C-5.75 2.85 -4.76 2.09 -3.75 1.31 C-2.75 0.31 -2.75 0.31 0 0 Z " fill="#010101" transform="translate(381.75,252.6875)"/>
<path d="M0 0 C0.7 -0 1.4 -0.01 2.12 -0.01 C3.59 -0.01 5.07 -0.01 6.55 0.01 C8.8 0.02 11.06 0.01 13.32 -0.01 C14.76 -0.01 16.19 -0.01 17.62 0 C18.93 0 20.24 0.01 21.58 0.01 C24.81 0.4 24.81 0.4 26.73 1.68 C28.26 4.11 28.28 6.55 28.41 9.36 C27.47 12.56 25.54 13.59 22.81 15.4 C19.75 15.92 19.75 15.92 16.38 15.93 C14.54 15.94 14.54 15.94 12.66 15.95 C11.39 15.93 10.12 15.91 8.81 15.9 C6.91 15.92 6.91 15.92 4.96 15.95 C3.74 15.94 2.51 15.94 1.25 15.93 C0.13 15.93 -0.98 15.92 -2.13 15.92 C-5.84 15.29 -7.53 14.01 -10.19 11.4 C-11.05 8.45 -10.59 6.54 -10.19 3.4 C-7.71 -0.55 -4.33 0.01 0 0 Z " fill="#030303" transform="translate(235.1875,393.6015625)"/>
<path d="M0 0 C0.83 -0.02 1.67 -0.04 2.53 -0.06 C6.77 -0.03 9.74 0.3 13.15 2.94 C15.56 5.62 15.56 5.62 15.69 9.25 C14.45 12.97 13.84 13.69 10.56 15.62 C7.08 16.23 3.59 16.09 0.06 16.06 C-0.89 16.08 -1.84 16.1 -2.82 16.12 C-9.74 16.12 -9.74 16.12 -13.06 13.78 C-14.98 10.77 -15.08 9.13 -14.44 5.62 C-10.28 -0.04 -6.54 -0.15 0 0 Z " fill="#030203" transform="translate(174.4375,156.375)"/>
<path d="M0 0 C3.06 0.56 3.06 0.56 6 2.44 C8.59 6.37 8.37 8.33 7.64 12.86 C5.11 24.61 5.11 24.61 2.11 27.32 C-0.5 28.9 -1.93 29.01 -4.94 28.56 C-7.19 27.62 -7.19 27.62 -8.94 25.56 C-11.16 18.67 -9.57 11.13 -6.94 4.56 C-4.59 1.74 -3.65 0.7 0 0 Z " fill="#030303" transform="translate(299.9375,181.4375)"/>
<path d="M0 0 C5.1 0.73 5.1 0.73 7.5 3.5 C8.11 6.82 8.06 10.07 8 13.44 C8.02 14.34 8.03 15.25 8.05 16.19 C8.01 22.77 8.01 22.77 5.69 26.09 C2.43 28.19 0.28 28.11 -3.5 27.5 C-6.54 24.71 -7.74 22.51 -8.03 18.47 C-8.04 16.98 -8.03 15.49 -8 14 C-8.02 13.25 -8.03 12.51 -8.05 11.74 C-8.02 7.88 -7.73 5.88 -5.69 2.5 C-3.5 0.5 -3.5 0.5 0 0 Z " fill="#030303" transform="translate(331.5,417.5)"/>
<path d="M0 0 C4.4 1.31 4.4 1.31 5.94 3.88 C7.1 10.69 4.14 16.94 0.94 22.88 C-2.8 25.36 -4.65 25.42 -9.06 24.88 C-11.56 22.81 -11.56 22.81 -13.06 19.88 C-13.18 13.71 -10.37 7.98 -7.06 2.88 C-4.39 0.43 -3.7 -0.15 0 0 Z " fill="#020202" transform="translate(257.0625,430.125)"/>
<path d="M0 0 C3.62 0.38 3.62 0.38 6.06 1.94 C8.34 5.49 8.29 7.17 7.62 11.38 C3.26 21.29 3.26 21.29 -1.38 24.38 C-7.48 24.16 -7.48 24.16 -10.31 21.69 C-11.69 18.68 -11.63 16.67 -11.38 13.38 C-10.13 10.45 -10.13 10.45 -8.5 7.62 C-7.97 6.68 -7.43 5.74 -6.88 4.77 C-4.71 1.33 -4.15 0.46 0 0 Z " fill="#030303" transform="translate(147.375,327.625)"/>
<path d="M0 0 C3.25 0.95 4.29 2.77 6.04 5.59 C6.57 8.75 6.57 8.75 6.54 12.09 C6.55 13.2 6.56 14.3 6.57 15.44 C5.93 19.23 4.73 20.89 2.04 23.59 C-0.9 24.66 -0.9 24.66 -3.96 24.59 C-6.62 23.12 -6.62 23.12 -8.96 20.59 C-9.65 17.72 -9.57 14.97 -9.46 12.03 C-9.47 11.26 -9.47 10.5 -9.47 9.71 C-9.42 6.63 -9.37 4.23 -7.68 1.6 C-5.24 0.17 -2.78 0.13 0 0 Z " fill="#030303" transform="translate(129.96484375,185.40625)"/>
<path d="M0 0 C4.93 2.38 8.38 4.31 10.31 9.56 C10 13 10 13 8.5 15.94 C6 18 6 18 2.81 18.69 C-2.36 17.75 -6 15.35 -10 12 C-12 9 -12 9 -11.88 5.5 C-11 2 -11 2 -9.38 0 C-5.75 -1.52 -3.79 -1.06 0 0 Z " fill="#030203" transform="translate(326,73)"/>
<path d="M0 0 C4.45 1.26 8.72 2.77 12.75 5.06 C14.31 8.19 14.11 10.62 13.75 14.06 C11.69 16.56 11.69 16.56 8.75 18.06 C3.24 18.06 -1.7 16.1 -6.25 13.06 C-8.43 9.79 -8.88 8.86 -8.25 5.06 C-5.69 1.49 -4.48 0.09 0 0 Z " fill="#090603" transform="translate(97.25,87.9375)"/>
<path d="M0 0 C3.84 1.11 8.29 2.75 11.17 5.62 C11.87 12.75 11.87 12.75 9.11 16.19 C5.18 18.11 3.37 17.76 -0.83 16.62 C-8.39 13.51 -8.39 13.51 -9.83 10.62 C-10.19 6.8 -10.33 4.46 -8.33 1.12 C-5.35 -0.66 -3.39 -0.61 0 0 Z " fill="#070402" transform="translate(123.83203125,439.375)"/>
<path d="M0 0 C4.45 1.32 4.45 1.32 6.38 4 C7.3 9.87 7.44 15.25 4.31 20.38 C1.38 22 1.38 22 -2.25 22.06 C-6.02 20.88 -6.72 20.33 -8.62 17 C-9.55 11.4 -9.59 6.55 -6.56 1.69 C-3.62 0 -3.62 0 0 0 Z " fill="#0A0603" transform="translate(445.625,383)"/>
<path d="M0 0 C4.09 0.66 5.02 1.32 7.5 4.56 C8.03 7.66 8.03 7.66 8 11.06 C8.01 12.19 8.02 13.31 8.03 14.47 C7.4 18.15 6.45 19.33 3.5 21.56 C-0.43 22.31 -1.99 21.89 -5.38 19.75 C-8.47 15.1 -8.36 11 -7.5 5.56 C-5.47 1.43 -4.55 0.73 0 0 Z " fill="#080502" transform="translate(69.5,271.4375)"/>
<path d="M0 0 C4.11 0.59 5 1.28 7.5 4.5 C8.49 9.81 8.28 14.87 5.94 19.75 C3.5 21.5 3.5 21.5 0 22.12 C-3.5 21.5 -3.5 21.5 -5.94 19.75 C-8.28 14.87 -8.49 9.81 -7.5 4.5 C-5 1.28 -4.11 0.59 0 0 Z " fill="#040201" transform="translate(124.5,65.5)"/>
<path d="M0 0 C2.69 1.75 2.69 1.75 5 4 C5.9 4.87 5.9 4.87 6.81 5.75 C8.7 9.32 8.38 11.99 8 16 C7 18 7 18 5 19 C1.68 19.61 0.13 19.89 -3 19 C-7.31 15.79 -9.72 12.54 -10.69 7.25 C-9.38 1.06 -6.24 -1.02 0 0 Z " fill="#020102" transform="translate(426,280)"/>
<path d="M0 0 C4.76 1.56 7.13 3.88 9.62 8.19 C10.36 11.96 10.17 13.37 8.06 16.56 C4.58 18.88 2.73 18.97 -1.38 18.19 C-5.34 15.24 -7.18 12.36 -8 7.5 C-7.38 4.19 -7.38 4.19 -5.81 1.69 C-3.38 0.19 -3.38 0.19 0 0 Z " fill="#020102" transform="translate(442.375,224.8125)"/>
</svg>
